<svg width="24" height="25" viewBox="0 0 24 25" fill="none" xmlns="http://www.w3.org/2000/svg">
<path fill-rule="evenodd" clip-rule="evenodd" d="M7.25002 7.75V7.63012C7.25002 5.46238 8.71763 3.56964 10.8171 3.02979C11.5931 2.83024 12.407 2.83024 13.183 3.02979C15.2824 3.56964 16.75 5.46238 16.75 7.63013V7.75H18.2511C18.8224 7.75 19.3073 8.16898 19.3901 8.73423L19.6088 10.2267C20.0393 13.1651 20.0393 16.1507 19.6088 19.0891C19.4008 20.5081 18.2565 21.6052 16.83 21.7531L16.2011 21.8183C13.4079 22.108 10.5921 22.108 7.79888 21.8183L7.17001 21.7531C5.74347 21.6052 4.59918 20.5081 4.39127 19.0891C3.96072 16.1507 3.96072 13.1651 4.39127 10.2267L4.60994 8.73423C4.69276 8.16898 5.17761 7.75 5.74889 7.75H7.25002ZM11.1906 4.48252C11.7216 4.34599 12.2784 4.34599 12.8094 4.48252C14.2459 4.8519 15.25 6.14693 15.25 7.63013V7.75H8.75002V7.63012C8.75002 6.14693 9.75417 4.8519 11.1906 4.48252ZM7.25002 9.25V11.5C7.25002 11.9142 7.5858 12.25 8.00002 12.25C8.41423 12.25 8.75002 11.9142 8.75002 11.5V9.25H15.25V11.5C15.25 11.9142 15.5858 12.25 16 12.25C16.4142 12.25 16.75 11.9142 16.75 11.5V9.25H17.9496L18.1246 10.4441C18.534 13.2384 18.534 16.0774 18.1246 18.8717C18.0162 19.6118 17.4193 20.184 16.6753 20.2611L16.0464 20.3264C13.356 20.6054 10.644 20.6054 7.95361 20.3264L7.32474 20.2611C6.5807 20.184 5.98386 19.6118 5.87542 18.8717C5.46601 16.0774 5.46601 13.2384 5.87542 10.4441L6.05039 9.25H7.25002Z" fill="#EBE1D0"/>
</svg>
