<svg width="18" height="18" viewBox="0 0 18 18" fill="none" xmlns="http://www.w3.org/2000/svg">
<path fill-rule="evenodd" clip-rule="evenodd" d="M8.089 1.41941C9.03902 0.510576 10.3275 0 11.671 0H14.2763C14.676 0 15 0.309957 15 0.692308V4.01538C15 4.39774 14.676 4.70769 14.2763 4.70769H11.671C11.6327 4.70769 11.5958 4.72228 11.5687 4.74825C11.5416 4.77421 11.5263 4.80943 11.5263 4.84615V6.64615H14.2763C14.4992 6.64615 14.7096 6.74437 14.8467 6.91241C14.9839 7.08044 15.0324 7.29955 14.9784 7.50637L14.11 10.8294C14.0294 11.1376 13.74 11.3538 13.4079 11.3538H11.5263V17.3077C11.5263 17.69 11.2023 18 10.8026 18H7.32895C6.92927 18 6.60526 17.69 6.60526 17.3077V11.3538H4.72368C4.324 11.3538 4 11.0439 4 10.6615V7.33846C4 6.95611 4.324 6.64615 4.72368 6.64615H6.60526V4.84615C6.60526 3.56087 7.13898 2.32824 8.089 1.41941ZM11.671 1.38462C10.7114 1.38462 9.79102 1.74931 9.11244 2.39848C8.43385 3.04764 8.05263 3.9281 8.05263 4.84615V7.33846C8.05263 7.72081 7.72863 8.03077 7.32895 8.03077H5.44737V9.96923H7.32895C7.72863 9.96923 8.05263 10.2792 8.05263 10.6615V16.6154H10.0789V10.6615C10.0789 10.2792 10.4029 9.96923 10.8026 9.96923H12.8429L13.3494 8.03077H10.8026C10.4029 8.03077 10.0789 7.72081 10.0789 7.33846V4.84615C10.0789 4.44221 10.2467 4.05481 10.5453 3.76918C10.8438 3.48354 11.2488 3.32308 11.671 3.32308H13.5526V1.38462H11.671Z" fill="#EBE1D0"/>
</svg>
