<svg width="18" height="19" viewBox="0 0 18 19" fill="none" xmlns="http://www.w3.org/2000/svg">
<g clip-path="url(#clip0_344_327)">
<path d="M3.5625 18.6392H14.4375C16.4018 18.6392 18 16.9842 18 14.9502V3.689C18 1.655 16.4018 0 14.4375 0H3.5625C1.59825 0 0 1.655 0 3.689V14.9502C0 16.9842 1.59825 18.6392 3.5625 18.6392ZM1.125 3.689C1.125 2.29728 2.2185 1.16495 3.5625 1.16495H14.4375C15.7815 1.16495 16.875 2.29728 16.875 3.689V14.9502C16.875 16.3419 15.7815 17.4742 14.4375 17.4742H3.5625C2.2185 17.4742 1.125 16.3419 1.125 14.9502V3.689Z" fill="#EBE1D0"/>
<path d="M9.00009 14.0806C11.5351 14.0806 13.5976 11.9448 13.5976 9.31983C13.5976 6.69482 11.5351 4.55908 9.00009 4.55908C6.46509 4.55908 4.40259 6.69482 4.40259 9.31983C4.40259 11.9448 6.46509 14.0806 9.00009 14.0806ZM9.00009 5.72403C10.9148 5.72403 12.4726 7.33709 12.4726 9.31983C12.4726 11.3026 10.9148 12.9156 9.00009 12.9156C7.08534 12.9156 5.52759 11.3026 5.52759 9.31983C5.52759 7.33709 7.08534 5.72403 9.00009 5.72403Z" fill="#EBE1D0"/>
<path d="M13.7684 5.7176C14.5079 5.7176 15.0652 5.14289 15.0652 4.38102C15.0652 3.58652 14.4787 3.04443 13.7692 3.04443C13.0297 3.04443 12.4724 3.61914 12.4724 4.38102C12.4724 5.17396 13.0559 5.7176 13.7684 5.7176ZM13.9012 4.25287C14.1382 4.46955 13.5974 4.73283 13.5974 4.38179C13.5974 4.1721 13.8727 4.22647 13.9012 4.25287Z" fill="#EBE1D0"/>
</g>
<defs>
<clipPath id="clip0_344_327">
<rect width="18" height="18.6392" fill="white"/>
</clipPath>
</defs>
</svg>
