<svg width="62" height="36" viewBox="0 0 62 36" fill="none" xmlns="http://www.w3.org/2000/svg">
<path d="M1.62 22.76C1.79333 22.96 2.02 23.1267 2.3 23.26C2.58 23.3933 2.88667 23.46 3.22 23.46C3.52667 23.46 3.82667 23.3267 4.12 23.06C4.41333 22.8067 4.56 22.36 4.56 21.72V7H6.98V22.16C6.98 22.7467 6.88667 23.2533 6.7 23.68C6.51333 24.1067 6.25333 24.46 5.92 24.74C5.6 25.02 5.21333 25.22 4.76 25.34C4.30667 25.4733 3.81333 25.54 3.28 25.54C2.86667 25.54 2.46667 25.48 2.08 25.36C1.69333 25.2533 1.35333 25.12 1.06 24.96C0.766667 24.8 0.533333 24.6467 0.36 24.5L1.62 22.76ZM11.7673 17.4L12.2073 15.4H18.7073L19.1673 17.4H11.7673ZM15.4273 10.96L13.2273 16.1L13.1873 16.62L11.2473 21H8.58734L15.4273 6.22L22.2673 21H19.6073L17.7073 16.74L17.6473 16.16L15.4273 10.96ZM23.8959 7H26.2559V21H23.8959V7ZM25.2959 9.08V7H28.1159C29.1293 7 30.0093 7.18 30.7559 7.54C31.5159 7.88667 32.1026 8.38667 32.5159 9.04C32.9293 9.68 33.1359 10.4467 33.1359 11.34C33.1359 12.2333 32.9293 13.0067 32.5159 13.66C32.1026 14.3133 31.5159 14.82 30.7559 15.18C30.0093 15.5267 29.1293 15.7 28.1159 15.7H25.2959V13.62H28.1159C28.9293 13.62 29.5826 13.4267 30.0759 13.04C30.5693 12.6533 30.8159 12.0867 30.8159 11.34C30.8159 10.5933 30.5693 10.0333 30.0759 9.66C29.5826 9.27333 28.9293 9.08 28.1159 9.08H25.2959ZM35.7322 17.4L36.1722 15.4H42.6722L43.1322 17.4H35.7322ZM39.3922 10.96L37.1922 16.1L37.1522 16.62L35.2122 21H32.5522L39.3922 6.22L46.2322 21H43.5722L41.6722 16.74L41.6122 16.16L39.3922 10.96ZM58.0808 7H60.4008V21.7L50.1808 11.6V21H47.8608V6.3L58.0808 16.4V7Z" fill="#383639"/>
<path d="M17.936 30.428C18.016 30.628 18.124 30.812 18.26 30.98C18.396 31.148 18.568 31.284 18.776 31.388C18.992 31.492 19.244 31.544 19.532 31.544C19.868 31.544 20.136 31.46 20.336 31.292C20.544 31.116 20.648 30.876 20.648 30.572C20.648 30.348 20.584 30.164 20.456 30.02C20.328 29.868 20.16 29.744 19.952 29.648C19.744 29.544 19.52 29.452 19.28 29.372C19.024 29.276 18.776 29.168 18.536 29.048C18.296 28.928 18.096 28.768 17.936 28.568C17.784 28.36 17.708 28.092 17.708 27.764C17.708 27.452 17.784 27.192 17.936 26.984C18.096 26.776 18.3 26.624 18.548 26.528C18.804 26.424 19.076 26.372 19.364 26.372C19.676 26.372 19.956 26.424 20.204 26.528C20.452 26.632 20.664 26.768 20.84 26.936C21.016 27.104 21.152 27.292 21.248 27.5L20.732 27.812C20.604 27.572 20.424 27.364 20.192 27.188C19.96 27.012 19.66 26.924 19.292 26.924C19.02 26.924 18.788 26.992 18.596 27.128C18.412 27.264 18.32 27.464 18.32 27.728C18.32 27.944 18.38 28.124 18.5 28.268C18.62 28.404 18.78 28.516 18.98 28.604C19.18 28.692 19.392 28.776 19.616 28.856C19.912 28.968 20.184 29.092 20.432 29.228C20.688 29.364 20.892 29.532 21.044 29.732C21.204 29.932 21.284 30.188 21.284 30.5C21.284 30.98 21.116 31.372 20.78 31.676C20.452 31.972 20.024 32.12 19.496 32.12C19.112 32.12 18.776 32.052 18.488 31.916C18.208 31.78 17.98 31.604 17.804 31.388C17.636 31.172 17.512 30.948 17.432 30.716L17.936 30.428ZM23.4118 29.984C23.4118 30.464 23.5158 30.844 23.7238 31.124C23.9318 31.396 24.2598 31.532 24.7078 31.532C25.0198 31.532 25.2958 31.456 25.5358 31.304C25.7838 31.152 25.9758 30.948 26.1118 30.692C26.2558 30.436 26.3278 30.152 26.3278 29.84V26.48H26.9518V32H26.3278V30.848C26.1758 31.248 25.9478 31.56 25.6438 31.784C25.3398 32.008 24.9798 32.12 24.5638 32.12C23.9878 32.12 23.5478 31.936 23.2438 31.568C22.9398 31.192 22.7878 30.688 22.7878 30.056V26.48H23.4118V29.984ZM28.8344 30.428C28.9144 30.628 29.0224 30.812 29.1584 30.98C29.2944 31.148 29.4664 31.284 29.6744 31.388C29.8904 31.492 30.1424 31.544 30.4304 31.544C30.7664 31.544 31.0344 31.46 31.2344 31.292C31.4424 31.116 31.5464 30.876 31.5464 30.572C31.5464 30.348 31.4824 30.164 31.3544 30.02C31.2264 29.868 31.0584 29.744 30.8504 29.648C30.6424 29.544 30.4184 29.452 30.1784 29.372C29.9224 29.276 29.6744 29.168 29.4344 29.048C29.1944 28.928 28.9944 28.768 28.8344 28.568C28.6824 28.36 28.6064 28.092 28.6064 27.764C28.6064 27.452 28.6824 27.192 28.8344 26.984C28.9944 26.776 29.1984 26.624 29.4464 26.528C29.7024 26.424 29.9744 26.372 30.2624 26.372C30.5744 26.372 30.8544 26.424 31.1024 26.528C31.3504 26.632 31.5624 26.768 31.7384 26.936C31.9144 27.104 32.0504 27.292 32.1464 27.5L31.6304 27.812C31.5024 27.572 31.3224 27.364 31.0904 27.188C30.8584 27.012 30.5584 26.924 30.1904 26.924C29.9184 26.924 29.6864 26.992 29.4944 27.128C29.3104 27.264 29.2184 27.464 29.2184 27.728C29.2184 27.944 29.2784 28.124 29.3984 28.268C29.5184 28.404 29.6784 28.516 29.8784 28.604C30.0784 28.692 30.2904 28.776 30.5144 28.856C30.8104 28.968 31.0824 29.092 31.3304 29.228C31.5864 29.364 31.7904 29.532 31.9424 29.732C32.1024 29.932 32.1824 30.188 32.1824 30.5C32.1824 30.98 32.0144 31.372 31.6784 31.676C31.3504 31.972 30.9224 32.12 30.3944 32.12C30.0104 32.12 29.6744 32.052 29.3864 31.916C29.1064 31.78 28.8784 31.604 28.7024 31.388C28.5344 31.172 28.4104 30.948 28.3304 30.716L28.8344 30.428ZM34.3103 22.64V32H33.6863V22.64H34.3103ZM37.2263 28.448C37.2263 27.976 37.1223 27.608 36.9143 27.344C36.7143 27.08 36.3863 26.948 35.9303 26.948C35.6183 26.948 35.3383 27.024 35.0903 27.176C34.8503 27.328 34.6583 27.532 34.5143 27.788C34.3783 28.044 34.3103 28.328 34.3103 28.64H34.0943C34.0943 28.2 34.1783 27.812 34.3463 27.476C34.5223 27.132 34.7583 26.86 35.0543 26.66C35.3503 26.46 35.6903 26.36 36.0743 26.36C36.4583 26.36 36.7823 26.44 37.0463 26.6C37.3103 26.752 37.5103 26.98 37.6463 27.284C37.7823 27.58 37.8503 27.944 37.8503 28.376V32H37.2263V28.448ZM39.7449 23.984C39.7449 23.856 39.7889 23.752 39.8769 23.672C39.9649 23.584 40.0689 23.54 40.1889 23.54C40.3169 23.54 40.4209 23.584 40.5009 23.672C40.5889 23.752 40.6329 23.856 40.6329 23.984C40.6329 24.104 40.5889 24.208 40.5009 24.296C40.4209 24.384 40.3169 24.428 40.1889 24.428C40.0689 24.428 39.9649 24.384 39.8769 24.296C39.7889 24.208 39.7449 24.104 39.7449 23.984ZM39.8769 26.48H40.5009V32H39.8769V26.48ZM46.6956 22.64V32H46.0716V22.64H46.6956ZM51.4116 29.24C51.4116 29.832 51.2916 30.344 51.0516 30.776C50.8196 31.208 50.4996 31.54 50.0916 31.772C49.6916 32.004 49.2436 32.12 48.7476 32.12C48.2836 32.12 47.8756 31.996 47.5236 31.748C47.1716 31.492 46.8956 31.148 46.6956 30.716C46.5036 30.276 46.4076 29.784 46.4076 29.24C46.4076 28.688 46.5036 28.196 46.6956 27.764C46.8956 27.332 47.1716 26.992 47.5236 26.744C47.8756 26.488 48.2836 26.36 48.7476 26.36C49.2436 26.36 49.6916 26.476 50.0916 26.708C50.4996 26.94 50.8196 27.272 51.0516 27.704C51.2916 28.128 51.4116 28.64 51.4116 29.24ZM50.7876 29.24C50.7876 28.76 50.6916 28.348 50.4996 28.004C50.3076 27.66 50.0516 27.4 49.7316 27.224C49.4116 27.04 49.0556 26.948 48.6636 26.948C48.3276 26.948 48.0076 27.048 47.7036 27.248C47.3996 27.448 47.1556 27.72 46.9716 28.064C46.7876 28.408 46.6956 28.8 46.6956 29.24C46.6956 29.68 46.7876 30.072 46.9716 30.416C47.1556 30.76 47.3996 31.032 47.7036 31.232C48.0076 31.432 48.3276 31.532 48.6636 31.532C49.0556 31.532 49.4116 31.444 49.7316 31.268C50.0516 31.084 50.3076 30.82 50.4996 30.476C50.6916 30.132 50.7876 29.72 50.7876 29.24ZM52.919 30.344C52.919 30.616 52.979 30.844 53.099 31.028C53.227 31.212 53.395 31.352 53.603 31.448C53.819 31.536 54.055 31.58 54.311 31.58C54.623 31.58 54.907 31.508 55.163 31.364C55.427 31.22 55.639 31.008 55.799 30.728C55.959 30.448 56.039 30.104 56.039 29.696L56.183 30.224C56.183 30.656 56.079 31.012 55.871 31.292C55.663 31.572 55.403 31.78 55.091 31.916C54.779 32.052 54.463 32.12 54.143 32.12C53.831 32.12 53.531 32.056 53.243 31.928C52.955 31.792 52.723 31.596 52.547 31.34C52.371 31.084 52.283 30.76 52.283 30.368C52.283 29.832 52.467 29.408 52.835 29.096C53.211 28.784 53.719 28.628 54.359 28.628C54.719 28.628 55.027 28.672 55.283 28.76C55.547 28.84 55.763 28.932 55.931 29.036C56.099 29.14 56.219 29.228 56.291 29.3V29.696C56.019 29.504 55.727 29.364 55.415 29.276C55.111 29.18 54.791 29.132 54.455 29.132C54.143 29.132 53.871 29.176 53.639 29.264C53.415 29.352 53.239 29.484 53.111 29.66C52.983 29.836 52.919 30.064 52.919 30.344ZM52.943 27.488L52.631 27.02C52.839 26.876 53.107 26.732 53.435 26.588C53.771 26.436 54.183 26.36 54.671 26.36C55.087 26.36 55.443 26.428 55.739 26.564C56.035 26.7 56.263 26.896 56.423 27.152C56.583 27.408 56.663 27.72 56.663 28.088V32H56.039V28.172C56.039 28.012 56.015 27.86 55.967 27.716C55.919 27.564 55.839 27.428 55.727 27.308C55.623 27.188 55.479 27.092 55.295 27.02C55.111 26.948 54.887 26.912 54.623 26.912C54.351 26.912 54.107 26.944 53.891 27.008C53.675 27.072 53.487 27.148 53.327 27.236C53.175 27.324 53.047 27.408 52.943 27.488ZM59.0017 26.48V32H58.3777V26.48H59.0017ZM60.8377 27.212C60.7177 27.124 60.6017 27.06 60.4897 27.02C60.3857 26.972 60.2617 26.948 60.1177 26.948C59.8457 26.948 59.6257 27.024 59.4577 27.176C59.2977 27.328 59.1817 27.532 59.1097 27.788C59.0377 28.044 59.0017 28.328 59.0017 28.64H58.7137C58.7137 28.2 58.7817 27.812 58.9177 27.476C59.0537 27.132 59.2377 26.86 59.4697 26.66C59.7097 26.46 59.9737 26.36 60.2617 26.36C60.4377 26.36 60.6017 26.388 60.7537 26.444C60.9137 26.492 61.0577 26.576 61.1857 26.696L60.8377 27.212Z" fill="#383639"/>
</svg>
