<svg width="50" height="50" viewBox="0 0 50 50" fill="none" xmlns="http://www.w3.org/2000/svg">
<g clip-path="url(#clip0_47_1507)">
<path d="M33.6403 13.4024C31.4241 13.4026 30.107 11.4206 29.4875 10.1404C26.7708 13.2148 22.5102 13.3828 22.3146 13.389C22.3036 13.389 22.2923 13.389 22.2814 13.389C16.859 13.389 15.4851 9.12632 15.472 9.08295C15.4308 8.94927 15.4358 8.80556 15.4858 8.67492C17.3437 3.84219 22.3223 4.40675 22.3732 4.41409C22.5152 4.41589 26.7714 4.58379 29.4875 7.65808C30.1381 6.31285 31.5535 4.1867 33.9857 4.41159C34.3031 4.44026 34.5479 4.70305 34.5546 5.0213C34.557 5.13572 34.5887 7.51302 33.3565 8.89919C34.5894 10.2856 34.557 12.6627 34.5546 12.7771C34.5479 13.0954 34.3031 13.3581 33.9857 13.3868C33.8686 13.3974 33.7532 13.4024 33.6403 13.4024ZM16.7398 8.90806C17.0467 9.64142 18.3791 12.1392 22.265 12.1392H22.2937C22.3202 12.138 26.5707 11.9589 28.8876 8.89919C26.5707 5.83951 22.3196 5.66031 22.2754 5.65879C22.0574 5.63505 18.2992 5.23248 16.7398 8.90806ZM30.3158 8.89919C30.5667 9.56839 31.5328 11.8215 33.2741 12.1191C33.185 11.2381 32.8835 9.94408 32.0711 9.4262C31.891 9.31143 31.7818 9.11279 31.7818 8.89919C31.7818 8.68559 31.891 8.48686 32.0711 8.37217C32.8835 7.8543 33.185 6.56032 33.2741 5.67931C31.5328 5.9765 30.5666 8.22962 30.3158 8.89919Z" fill="#383639"/>
<path d="M22.3547 13.2685C22.2373 13.2685 22.1182 13.2355 22.0126 13.1663C21.7239 12.9768 21.6434 12.5895 21.8325 12.3007C24.089 8.86017 21.9345 5.654 21.8417 5.51916C21.6461 5.23567 21.7166 4.84655 21.9997 4.65033C22.2838 4.45411 22.6708 4.5231 22.8679 4.80596C22.9812 4.96804 25.606 8.82631 22.878 12.9862C22.7578 13.1693 22.5583 13.2685 22.3547 13.2685Z" fill="#383639"/>
<path d="M33.6403 24.0955C31.4241 24.0958 30.107 22.1137 29.4875 20.8335C26.7708 23.9079 22.5102 24.076 22.3146 24.0822C22.304 24.0822 22.2927 24.0822 22.282 24.0822C16.8587 24.0822 15.4851 19.8195 15.472 19.7762C15.4308 19.6425 15.4358 19.4988 15.4858 19.3682C17.344 14.5348 22.3226 15.1018 22.3732 15.1073C22.5152 15.1091 26.7714 15.277 29.4875 18.3513C30.1381 17.0061 31.5535 14.8854 33.9857 15.1048C34.3031 15.1335 34.5479 15.3963 34.5546 15.7145C34.557 15.8289 34.5894 18.206 33.3565 19.5924C34.5888 20.9785 34.557 23.3559 34.5546 23.4703C34.5479 23.7886 34.3031 24.0513 33.9857 24.08C33.8686 24.0906 33.7532 24.0955 33.6403 24.0955ZM16.7398 19.6012C17.0467 20.3346 18.3791 22.8324 22.2653 22.8324H22.2937C22.3202 22.8311 26.5707 22.652 28.8876 19.5923C26.5707 16.5326 22.3196 16.3535 22.2754 16.3519C22.0583 16.3278 18.2995 15.925 16.7398 19.6012ZM30.3158 19.5923C30.5667 20.2615 31.5328 22.5147 33.2741 22.8122C33.185 21.9312 32.8835 20.6372 32.0711 20.1193C31.891 20.0046 31.7818 19.8059 31.7818 19.5923C31.7818 19.3787 31.891 19.18 32.0711 19.0653C32.8835 18.5474 33.185 17.2535 33.2741 16.3724C31.5328 16.6696 30.5666 18.9228 30.3158 19.5923Z" fill="#383639"/>
<path d="M22.3547 23.9615C22.2373 23.9615 22.1182 23.9285 22.0126 23.8592C21.724 23.6697 21.6434 23.2825 21.8326 22.9937C24.1024 19.5324 21.8655 16.2465 21.8426 16.2137C21.6451 15.9304 21.7147 15.5411 21.998 15.3436C22.2808 15.1465 22.6706 15.216 22.868 15.4989C22.9813 15.661 25.6061 19.519 22.8781 23.6791C22.7578 23.8623 22.5583 23.9615 22.3547 23.9615Z" fill="#383639"/>
<path d="M33.6404 34.7887C31.4242 34.7887 30.1071 32.8063 29.4876 31.5258C26.7709 34.6007 22.5103 34.7692 22.3147 34.7753C22.3041 34.7753 22.2934 34.7753 22.2826 34.7753C16.8594 34.7753 15.4851 30.512 15.472 30.4687C15.4308 30.335 15.4358 30.1916 15.4858 30.0609C17.3437 25.2282 22.3235 25.7939 22.3732 25.7995C22.5152 25.8013 26.7714 25.9692 29.4875 29.0441C30.1381 27.6982 31.5663 25.5834 33.9857 25.797C34.3031 25.8257 34.5479 26.0882 34.5546 26.4068C34.557 26.5215 34.5894 28.8988 33.3565 30.2849C34.5894 31.671 34.557 34.0484 34.5546 34.1631C34.5479 34.4817 34.3031 34.7441 33.9857 34.7728C33.8687 34.7833 33.7533 34.7887 33.6404 34.7887ZM16.7399 30.2941C17.0468 31.0271 18.379 33.5253 22.266 33.5253H22.2938C22.3203 33.5241 26.5708 33.3447 28.8877 30.2849C26.5708 27.2252 22.3197 27.0458 22.2755 27.044C22.0581 27.0233 18.2993 26.6174 16.7399 30.2941ZM30.3159 30.285C30.5668 30.9546 31.5329 33.2073 33.2742 33.5052C33.1851 32.6239 32.8836 31.33 32.0712 30.8124C31.8911 30.6976 31.7819 30.4987 31.7819 30.285C31.7819 30.0713 31.8911 29.8724 32.0712 29.7576C32.8884 29.237 33.1888 27.9443 33.2754 27.0648C31.5335 27.3608 30.5667 29.6154 30.3159 30.285Z" fill="#383639"/>
<path d="M22.3547 34.6545C22.2373 34.6545 22.1182 34.6215 22.0126 34.552C21.724 34.3627 21.6434 33.9752 21.8326 33.6864C24.1024 30.2251 21.8655 26.939 21.8426 26.9067C21.6451 26.6234 21.7147 26.2334 21.998 26.0363C22.2808 25.8397 22.6706 25.9094 22.868 26.1913C22.9813 26.3537 25.6061 30.2117 22.8781 34.3725C22.7578 34.555 22.5583 34.6545 22.3547 34.6545Z" fill="#383639"/>
<path d="M37.9593 50H12.0404C9.54137 50 7.5083 47.967 7.5083 45.4675V4.53213C7.50821 2.03307 9.54128 0 12.0404 0H37.9593C40.4587 0 42.4918 2.03307 42.4918 4.53213V45.4675C42.4918 47.967 40.4586 50 37.9593 50ZM12.0404 1.24998C10.2307 1.24998 8.75828 2.72243 8.75828 4.53213V45.4675C8.75828 47.2772 10.2307 48.75 12.0404 48.75H37.9593C39.769 48.75 41.2418 47.2772 41.2418 45.4675V4.53213C41.2418 2.72243 39.769 1.24998 37.9593 1.24998H12.0404Z" fill="#383639"/>
<path d="M33.5678 49.7089C33.2224 49.7089 32.9428 49.4293 32.9428 49.0838V39.0626H17.0572V49.0839C17.0572 49.4294 16.7774 49.709 16.4322 49.709C16.087 49.709 15.8071 49.4294 15.8071 49.0839V38.4375C15.8071 38.092 16.0869 37.8125 16.4322 37.8125H33.5678C33.9132 37.8125 34.1928 38.092 34.1928 38.4375V49.0839C34.1928 49.4293 33.9132 49.7089 33.5678 49.7089Z" fill="#383639"/>
<path d="M28.281 46.4929H21.7188C21.3737 46.4929 21.0938 46.2133 21.0938 45.8678C21.0938 45.5223 21.3736 45.2428 21.7188 45.2428H28.281C28.6265 45.2428 28.9061 45.5223 28.9061 45.8678C28.9061 46.2133 28.6265 46.4929 28.281 46.4929Z" fill="#383639"/>
<path d="M28.281 43.1592H21.7188C21.3737 43.1592 21.0938 42.8797 21.0938 42.5342C21.0938 42.1887 21.3736 41.9092 21.7188 41.9092H28.281C28.6265 41.9092 28.9061 42.1887 28.9061 42.5342C28.9061 42.8797 28.6265 43.1592 28.281 43.1592Z" fill="#383639"/>
<path d="M37.7522 21.9732C37.4067 21.9732 37.1272 21.6934 37.1272 21.3482V10.2255C37.1272 9.88037 37.4067 9.60046 37.7522 9.60046C38.0977 9.60046 38.3773 9.88028 38.3773 10.2255V21.3483C38.3773 21.6934 38.0977 21.9732 37.7522 21.9732Z" fill="#383639"/>
<path d="M37.7522 29.5728C37.4067 29.5728 37.1272 29.2933 37.1272 28.9478V26.6285C37.1272 26.283 37.4067 26.0034 37.7522 26.0034C38.0977 26.0034 38.3773 26.283 38.3773 26.6285V28.9478C38.3773 29.2933 38.0977 29.5728 37.7522 29.5728Z" fill="#383639"/>
<path d="M11.8379 44.2273C11.4928 44.2273 11.2129 43.9478 11.2129 43.6023V32.4799C11.2129 32.1344 11.4927 31.8549 11.8379 31.8549C12.1831 31.8549 12.463 32.1344 12.463 32.4799V43.6023C12.463 43.9478 12.1831 44.2273 11.8379 44.2273Z" fill="#383639"/>
<path d="M11.8379 27.824C11.4928 27.824 11.2129 27.5445 11.2129 27.199V24.8797C11.2129 24.5345 11.4927 24.2546 11.8379 24.2546C12.1831 24.2546 12.463 24.5345 12.463 24.8797V27.199C12.463 27.5445 12.1831 27.824 11.8379 27.824Z" fill="#383639"/>
</g>
<defs>
<clipPath id="clip0_47_1507">
<rect width="50" height="50" fill="white"/>
</clipPath>
</defs>
</svg>
