<svg width="50" height="50" viewBox="0 0 50 50" fill="none" xmlns="http://www.w3.org/2000/svg">
<path d="M48.4694 14.9745H50C50 10.6139 46.4523 7.06628 42.0918 7.06628H18.6225C14.2619 7.06628 10.7143 10.6139 10.7143 14.9745H12.2448C12.2448 11.4579 15.1058 8.59695 18.6224 8.59695H25.8162V14.2092H19.7959V9.87244H18.2653V14.2092H14.0816V19.3112H7.9082C3.54766 19.3112 0 22.8589 0 27.2194H1.53057C1.53057 23.7028 4.3915 20.8419 7.9081 20.8419H15.102V26.4541H9.08164V22.1174H7.55098V26.4541H3.36738V35.6887C3.36738 38.9241 5.99941 41.5561 9.23477 41.5561H15.1021V42.9337H24.1838V41.5561H30.0512C33.2865 41.5561 35.9186 38.9241 35.9186 35.6887V29.3112H40.7655C44.0009 29.3112 46.6329 26.6792 46.6329 23.4438V14.2092H42.4492V8.60749C45.8 8.79343 48.4694 11.5777 48.4694 14.9745ZM15.1021 40.0255H9.23467C6.84336 40.0255 4.89795 38.0801 4.89795 35.6887V27.9846H15.1021V40.0255ZM34.8979 8.59695H40.9184V14.2092H34.8979V8.59695ZM27.347 8.59695H33.3674V14.2092H27.347V8.59695ZM22.653 41.403H21.4285V39.6173H19.8979V41.403H19.3878V37.5764H17.8572V41.403H16.6327V19.4642H22.6531V41.403H22.653ZM34.3878 35.6887C34.3878 38.0801 32.4424 40.0255 30.0511 40.0255H24.1837V20.8418H30.2041V26.454H25.4592V27.9846H34.3878V35.6887ZM45.1021 15.7398V23.4439C45.1021 25.8352 43.1566 27.7806 40.7653 27.7806H35.9184V26.4541H31.7347V20.8524C35.0856 21.0384 37.7551 23.8227 37.7551 27.2193H39.2856C39.2856 22.8588 35.738 19.3111 31.3774 19.3111H24.1836V17.9336H15.6122V15.7397L45.1021 15.7398Z" fill="#383639"/>
<path d="M39.6429 19.9235H38.1123V21.454H39.6429V19.9235Z" fill="#383639"/>
<path d="M42.7039 22.9846H41.1733V24.5152H42.7039V22.9846Z" fill="#383639"/>
<path d="M28.9285 32.1683H27.3979V33.699H28.9285V32.1683Z" fill="#383639"/>
<path d="M31.9898 35.2296H30.4592V36.7602H31.9898V35.2296Z" fill="#383639"/>
<path d="M10.5611 30.6378H9.03052V32.1684H10.5611V30.6378Z" fill="#383639"/>
</svg>
