<svg width="50" height="50" viewBox="0 0 50 50" fill="none" xmlns="http://www.w3.org/2000/svg">
<g clip-path="url(#clip0_47_1527)">
<path d="M43.0095 12.5104C42.7887 12.4218 42.5361 12.4771 42.3719 12.6497L37.237 18.0488H36.0105L41.2875 4.41605C41.3442 4.26955 41.3392 4.10628 41.2738 3.96338C41.2083 3.82049 41.0877 3.71029 40.9397 3.65769L38.4009 2.75585C38.2529 2.70348 38.09 2.71279 37.949 2.78226C37.808 2.85174 37.7012 2.9752 37.6527 3.12461L32.8103 18.0488H32.052L35.9697 1.25286C36.0054 1.09995 35.9776 0.938903 35.8929 0.806595C35.8082 0.674286 35.6733 0.582007 35.5195 0.550588L32.8793 0.0118114C32.725 -0.019724 32.5653 0.0125096 32.4355 0.101064C32.3056 0.189619 32.2171 0.326699 32.19 0.481583L29.265 17.1678C27.7181 16.6805 26.1068 16.4338 24.4653 16.4338C22.0074 16.4338 19.6529 16.9782 17.464 18.049H11.6938L6.55896 12.6498C6.395 12.4773 6.14249 12.4219 5.92139 12.5105C5.70041 12.5988 5.55542 12.8128 5.55542 13.0508V22.8643C5.55542 22.9871 5.59429 23.1067 5.66632 23.2061L10.8843 30.3955L13.1444 49.4869C13.1792 49.7798 13.4274 50.0003 13.7223 50.0003H35.2088C35.5036 50.0003 35.7518 49.7797 35.7866 49.4869L38.0466 30.395L43.2646 23.2057C43.3366 23.1064 43.3755 22.9867 43.3755 22.864V13.0506C43.3755 12.8126 43.2306 12.5986 43.0095 12.5104ZM37.9732 5.90752L39.1241 6.78155L38.7864 7.65395L37.6793 6.81308L37.9732 5.90752ZM38.3494 8.78305L33.1558 22.2001C33.031 22.1053 32.9048 22.0123 32.7772 21.9214L37.299 7.98513L38.3494 8.78305ZM36.9046 24.3701V26.3059C36.1175 25.0578 35.1733 23.9392 34.102 22.9795L34.6232 21.6332C35.4918 22.452 36.2569 23.3691 36.9046 24.3701ZM33.2552 27.8347C33.6797 28.3823 34.0713 28.9695 34.4251 29.5936H25.7258C26.7324 28.9164 27.8629 28.4216 29.1036 28.1175C30.4206 27.7936 31.8164 27.7004 33.2552 27.8347ZM28.826 26.9873C26.9186 27.4549 25.2429 28.3319 23.8402 29.5935H21.5485C21.7697 29.3344 22.0005 29.0827 22.2417 28.8415C23.772 27.3122 25.6035 26.2168 27.6853 25.5857C28.542 25.3252 29.4298 25.1499 30.3268 25.0613C30.9871 25.5085 31.6101 26.0281 32.1881 26.6135C31.0326 26.5988 29.9062 26.7219 28.826 26.9873ZM27.3473 24.4722C25.0807 25.1594 23.0863 26.3525 21.4191 28.0187C20.9277 28.5101 20.4747 29.0398 20.0639 29.5936H18.1042C18.7114 28.6039 19.4327 27.6864 20.2597 26.8595C21.879 25.2415 23.7889 24.0513 25.9409 23.3177C26.8817 23.4565 27.7983 23.7297 28.6844 24.1347C28.2329 24.2269 27.7862 24.3388 27.3473 24.4722ZM19.4371 26.0365C18.3783 27.0952 17.4798 28.2914 16.7581 29.5935H14.5053C15.6776 27.5261 17.2578 25.8546 19.1025 24.7397C20.3632 23.9754 21.6969 23.4948 23.0822 23.3036C21.7529 24.0278 20.5332 24.9411 19.4371 26.0365ZM31.7151 19.4931C31.8922 19.5927 32.0683 19.6947 32.2416 19.8018L31.7676 21.263C31.6321 21.1824 31.4953 21.1041 31.3571 21.0278L31.7151 19.4931ZM30.2876 20.49C30.1569 20.4309 30.0257 20.3739 29.8938 20.3189L32.878 3.29498L34.0848 4.21136L30.2876 20.49ZM30.6176 21.9478C32.8721 23.1502 34.7785 24.9906 36.1325 27.2711L36.9047 28.93V29.5935H35.7492C34.459 27.1421 32.5825 25.0456 30.4319 23.7446C28.572 22.6171 26.5646 22.0452 24.4657 22.0452C22.3668 22.0452 20.3593 22.6171 18.5 23.7443C16.3502 25.0436 14.5026 27.1409 13.2116 29.5936H12.026V28.8633L12.7964 27.274C14.1516 24.9907 16.059 23.1492 18.3138 21.9478C20.2338 20.9217 22.3035 20.4013 24.4656 20.4013C26.6277 20.4013 28.6973 20.9215 30.6176 21.9478ZM36.9046 19.2125V22.3844C36.3502 21.6972 35.7373 21.0579 35.0741 20.4682L35.5602 19.2125H36.9046ZM38.575 4.05264L39.9864 4.55406L39.5613 5.65233L38.3537 4.73513L38.575 4.05264ZM34.7006 1.57124L34.3743 2.97008L33.104 2.0054L33.2326 1.2716L34.7006 1.57124ZM24.4652 17.5973C26.0397 17.5973 27.5835 17.8428 29.0619 18.3256L28.7843 19.9096C27.3953 19.4631 25.9506 19.2374 24.4656 19.2374C22.1101 19.2374 19.8558 19.8039 17.766 20.9209C15.4487 22.1557 13.4728 24.0121 12.026 26.3058V24.3682C13.4707 22.1373 15.4825 20.3348 17.857 19.1511C19.9188 18.1202 22.1422 17.5973 24.4652 17.5973ZM15.4588 19.2125C14.1662 20.095 13.0104 21.1654 12.0259 22.3868V19.2125H15.4588ZM6.71909 14.5067L10.8622 18.8632V28.3837L6.71909 22.6752V14.5067ZM34.6916 48.8364H14.2393L12.0989 30.7579H36.8317L34.6916 48.8364ZM42.2118 22.6752L38.0683 28.3841V18.8634L42.2118 14.5067V22.6752Z" fill="#383639"/>
</g>
<defs>
<clipPath id="clip0_47_1527">
<rect width="50" height="50" fill="white"/>
</clipPath>
</defs>
</svg>
