<svg width="50" height="50" viewBox="0 0 50 50" fill="none" xmlns="http://www.w3.org/2000/svg">
<g clip-path="url(#clip0_47_1522)">
<path d="M49.9937 29.4299C49.9844 29.1571 49.9839 26.4162 49.9837 26.4097C49.9281 24.8268 49.4916 23.2923 48.705 21.8498C48.7821 21.1601 49.0534 18.6488 49.0534 17.4413C49.0534 17.2956 48.9942 17.156 48.8895 17.0547C44.4467 12.7574 37.8416 11.5805 37.5626 11.5325C37.4908 11.5203 37.4173 11.5226 37.3463 11.5394L32.8206 12.6208C30.9925 12.3305 29.093 12.1799 27.1562 12.1799C27.0715 12.1799 26.9859 12.1816 26.9008 12.1821L22.1123 4.63856C21.9532 4.38781 21.6207 4.31359 21.3699 4.47269C21.119 4.63189 21.0449 4.9643 21.204 5.21505L25.645 12.211C21.3571 12.3819 17.2722 13.2665 13.7359 14.7618L9.0486 7.37791C8.8895 7.12727 8.55699 7.05294 8.30624 7.21204C8.05538 7.37124 7.98126 7.70365 8.14036 7.9544L12.7428 15.2047C11.5404 15.7695 10.4089 16.4072 9.36454 17.1152C4.9406 20.1144 2.58271 24.0043 2.72535 28.0686C2.7389 28.4547 2.77601 28.8379 2.83443 29.2176L0.0544163 34.919C-0.0319648 35.0961 -0.014538 35.3064 0.0998121 35.4669C0.255685 35.6857 3.99105 40.8574 10.3696 43.5394C10.4356 43.5671 10.5065 43.5815 10.5781 43.5815C10.5828 43.5815 10.5875 43.5813 10.5923 43.5812C11.7087 43.5519 12.7536 43.5194 13.7117 43.4862C17.2872 44.8827 21.3698 45.6108 25.6011 45.6108C26.0333 45.6108 26.4679 45.6033 26.9028 45.588C33.1722 45.368 39.0188 43.592 43.3658 40.5874C47.7854 37.5325 50.1392 33.5698 49.9937 29.4299ZM37.4849 12.6123C38.329 12.7771 44.0635 14.0078 47.9747 17.669C47.9567 18.4034 47.8619 19.5071 47.7744 20.4035C46.6168 18.8489 45.025 17.4313 43.0397 16.2153C40.8095 14.8494 38.1955 13.8063 35.3487 13.1228L37.4849 12.6123ZM42.4778 17.1325C46.498 19.5948 48.7815 22.9004 48.9082 26.4412C48.9081 26.5028 48.9077 26.7371 48.9076 27.0515C48.7905 30.5163 46.6221 33.8412 42.7407 36.4725C42.3438 36.7415 41.9337 37 41.5115 37.2479C41.5911 37.1811 42.0076 36.826 42.1278 36.7039C43.3094 35.6018 44.2179 34.4 44.833 33.1263C44.8988 32.99 45.1138 32.4895 45.1533 32.3867C45.5141 31.4503 45.7145 30.4885 45.7497 29.5225C45.7498 29.5189 45.7565 29.1098 45.7497 28.9095C45.6584 26.3078 44.3941 23.8579 42.0925 21.8152L41.2114 19.0186C41.1225 18.7362 40.8224 18.579 40.5392 18.6664L38.1635 19.4022C37.7461 19.1988 37.3176 19.0073 36.8813 18.8303C36.4507 15.928 33.9431 13.694 30.9231 13.694C29.9634 13.694 29.0575 13.9169 28.253 14.3126L27.584 13.2587C33.2217 13.3249 38.4964 14.6942 42.4778 17.1325ZM12.9264 21.0333C12.3405 20.6058 12.177 19.786 12.553 19.169L12.5743 19.1342C12.8547 18.6741 13.3773 18.4116 13.9078 18.4674C14.2173 18.4996 14.5546 18.5512 14.9089 18.6169L15.9933 20.3254C16.0957 20.4868 16.2699 20.5751 16.4479 20.5751C16.5465 20.5751 16.6463 20.548 16.7357 20.4913C16.9865 20.3321 17.0606 19.9997 16.9015 19.7489L16.391 18.9446C18.0881 19.369 19.8448 19.9486 20.7312 20.2526C20.5537 20.757 20.4972 21.4026 20.5646 22.1422C19.6524 21.2437 18.7008 20.7054 17.9331 20.7054C17.6339 20.7054 17.3647 20.781 17.1329 20.9302C16.7252 21.1926 16.5067 21.6233 16.4361 22.1538C15.8009 21.9058 14.8074 21.602 13.5211 21.4673L12.9264 21.0333ZM19.6176 17.7948C19.1935 17.1334 19.3831 16.245 20.0405 15.8143C20.6556 15.4113 21.4721 15.5353 21.9398 16.1028L25.2339 20.0997C24.993 20.2635 24.7923 20.5073 24.6364 20.8225C23.6529 19.4688 22.544 18.8407 21.6534 19.1935C21.5568 19.2318 21.4669 19.2814 21.3826 19.3392C21.1552 19.2594 20.8131 19.1411 20.3911 19.0012L19.6176 17.7948ZM27.913 15.784L29.0569 17.586C29.1593 17.7473 29.3334 17.8356 29.5115 17.8356C29.6101 17.8356 29.7098 17.8085 29.7992 17.7518C30.0501 17.5926 30.1242 17.2602 29.9651 17.0095L28.8338 15.2272C29.4683 14.9335 30.1763 14.7698 30.9235 14.7698C33.652 14.7698 35.8718 16.9897 35.8718 19.7182C35.8718 19.9832 35.8504 20.2489 35.8083 20.5114L32.5864 22.0393C32.4895 21.963 32.368 21.9204 32.2419 21.9235L29.8753 21.9773C29.7647 21.9798 29.6595 22.0166 29.5725 22.0796L28.825 22.62C28.222 21.3056 27.3856 20.2295 26.4935 19.9367L25.9915 19.3275C26.1034 17.8753 26.8314 16.6106 27.913 15.784ZM24.813 35.9375C23.2241 36.4151 21.7426 35.8446 21.4274 35.7088C21.321 35.6098 21.2111 35.513 21.096 35.4199C21.0115 35.3515 20.9255 35.2856 20.8389 35.2213L21.1409 33.6093C21.2461 33.5631 21.3457 33.5088 21.4386 33.4457C22.1179 33.6471 23.9677 34.1958 25.6586 34.7001C25.2848 35.0402 25.0007 35.4587 24.813 35.9375ZM10.1311 35.3977C10.1489 35.264 10.7534 34.8235 11.9598 34.8235C12.41 34.8235 12.7761 34.8849 13.0595 34.9687C13.1338 34.9975 13.2109 35.0243 13.2907 35.0491C13.6134 35.1785 13.7796 35.3283 13.7886 35.3966C13.7708 35.5304 13.1663 35.971 11.9598 35.971C10.7534 35.9711 10.1489 35.5305 10.1311 35.3977ZM10.8275 26.1516C11.5148 25.7314 13.049 26.5188 14.1522 28.3206C15.0805 29.8383 15.2233 31.2801 14.8519 31.956C14.8203 31.9556 14.7888 31.9548 14.7569 31.9548C14.1075 31.9548 13.5274 32.0584 13.0591 32.2402C13.0641 32.1983 13.0674 32.1563 13.0674 32.1148C13.0674 31.4916 12.5398 30.9634 11.6453 30.6794C11.5038 30.4935 11.3702 30.2991 11.2478 30.099C10.7189 29.2345 10.4049 28.3193 10.3637 27.522C10.329 26.8526 10.4981 26.3531 10.8275 26.1516ZM29.6707 23.3359L33.4763 31.6812C33.3029 31.5322 33.1042 31.3772 32.8866 31.2356C32.4637 30.9606 32.0479 30.7899 31.6499 30.7208L29.7929 26.6238C29.7654 25.8455 29.6307 25.0114 29.4095 24.2186C29.3565 24.0287 29.2974 23.8396 29.2339 23.6519L29.6707 23.3359ZM17.6282 33.8713C17.6499 33.785 17.6613 33.6959 17.6613 33.6045C17.6613 33.4689 17.6359 33.3388 17.5889 33.2151L17.8075 33.005C18.5535 33.4679 19.3182 33.7435 20.0131 33.7874L19.8609 34.6003C19.133 34.2119 18.3717 33.9616 17.6282 33.8713ZM13.4271 33.9529C13.1023 33.8273 12.9373 33.6733 12.928 33.6049C12.9458 33.4712 13.5503 33.0306 14.7567 33.0306C15.9632 33.0306 16.5678 33.4712 16.5855 33.6038C16.5771 33.6668 16.4414 33.8079 16.1674 33.9183C15.7949 34.0684 14.5405 34.3835 13.4271 33.9529ZM9.66445 33.6323C9.67058 33.6288 9.67661 33.6251 9.68253 33.6213C10.0456 33.3913 10.6486 33.254 11.2956 33.254C11.5008 33.254 11.7017 33.2687 11.8971 33.2967C11.8681 33.3957 11.8563 33.7014 11.8626 33.7489C11.1035 33.7612 10.4435 33.9156 9.95447 34.1719C9.60798 34.0319 9.47297 33.8748 9.46673 33.829C9.46899 33.8131 9.5089 33.7343 9.66445 33.6323ZM16.4379 31.9147C16.5966 32.0723 16.7595 32.2208 16.9252 32.3608L16.8539 32.4294C16.6041 32.2855 16.3039 32.17 15.9646 32.089C16.0216 31.9186 16.0626 31.7365 16.0881 31.5447C16.1992 31.6697 16.3156 31.7933 16.4379 31.9147ZM22.0961 30.7204C22.0077 30.4251 21.8851 30.1257 21.7323 29.8277C21.7964 29.8346 21.8597 29.8389 21.9215 29.8389C22.2207 29.8389 22.49 29.7632 22.7217 29.6139C23.145 29.3416 23.3879 28.8609 23.4388 28.2223C23.505 28.2786 23.5712 28.3312 23.6373 28.3807C23.9716 28.8846 25.803 31.6933 26.5715 33.8498C24.9906 33.3776 23.1102 32.8193 22.1349 32.5299C22.3112 32.0242 22.3016 31.4061 22.0961 30.7204ZM27.7076 33.8561C27.1835 32.1878 26.0035 30.1286 25.2221 28.8627C25.3044 28.8463 25.3855 28.8231 25.4648 28.7915C25.6188 28.7303 25.7958 28.6262 25.9625 28.4526C26.6186 29.3913 27.3526 29.9074 28.0464 29.9073C28.1716 29.9073 28.2957 29.8905 28.4176 29.8564C28.9541 29.7066 29.3185 29.2713 29.5377 28.6665L30.5164 30.8257C30.3218 30.9028 30.1358 31.0098 29.9614 31.1508C28.8677 32.0362 28.5978 33.1549 28.5513 33.8816C28.2649 33.8454 27.9825 33.8371 27.7076 33.8561ZM29.617 34.1387C29.615 33.6612 29.7387 32.7155 30.6383 31.9872C30.7946 31.8606 31.2703 31.4755 32.2833 32.1265C32.5796 32.3169 32.839 32.5443 33.0273 32.7273C32.4228 33.4979 32.0853 34.5535 32.0672 35.7148C31.3279 34.9738 30.4771 34.4415 29.617 34.1387ZM33.5349 37.899C32.6699 35.6146 33.2488 33.27 34.825 32.6728C36.4014 32.076 38.3879 33.4492 39.2533 35.7323C39.4629 36.287 39.5639 36.8401 39.5553 37.3799C38.1221 38.3578 36.4711 39.1704 34.6398 39.799C34.2067 39.3214 33.8277 38.6721 33.5349 37.899ZM42.3635 33.8019C42.3389 34.0342 42.291 34.2636 42.2232 34.4864C41.9366 32.2517 40.1186 30.5231 37.9242 30.5231C37.6699 30.5231 37.4195 30.5472 37.1735 30.5924C37.3947 30.4147 37.6356 30.2657 37.8938 30.1527C38.2814 29.9828 38.6941 29.8966 39.1204 29.8966C40.92 29.8966 42.3842 31.4688 42.3842 33.4014C42.3842 33.5309 42.3772 33.6666 42.3635 33.8019ZM40.2592 35.3516C39.5939 33.5962 38.3418 32.2952 36.9793 31.748C37.283 31.6492 37.5996 31.599 37.9242 31.599C39.7238 31.599 41.188 33.1712 41.188 35.1037C41.188 35.2331 41.181 35.3689 41.1673 35.5043C41.14 35.7622 41.0852 36.0171 41.0042 36.2642C40.8681 36.3675 40.7238 36.4591 40.5732 36.5394C40.5135 36.1441 40.4088 35.7472 40.2592 35.3516ZM36.6543 29.1159L33.8359 24.1561L35.8473 23.0266L36.9411 28.7064C36.8385 28.8374 36.7423 28.9735 36.6543 29.1159ZM43.4031 32.6648C43.0682 30.4883 41.2758 28.821 39.1205 28.821C38.8109 28.821 38.5068 28.8559 38.2099 28.9227C38.2586 28.8796 38.3737 28.7844 38.381 28.7781C38.9388 28.3452 39.5979 28.1165 40.2888 28.1165C42.0878 28.1165 43.5515 29.6887 43.5515 31.6212C43.5514 31.9805 43.5009 32.3295 43.4031 32.6648ZM37.8256 27.611L36.8704 22.6513L38.496 22.4376L39.5543 26.0082C38.8592 26.3675 38.2573 26.9175 37.8256 27.611ZM37.9736 20.675L38.1865 21.3932L36.1642 21.659L36.1643 21.6595C36.0973 21.6684 36.0316 21.6892 35.971 21.7232L33.3045 23.2206L33.156 22.9595L37.9736 20.675ZM36.0285 30.1918C35.6763 30.5695 35.3884 31.0079 35.1795 31.4877C34.9922 31.5104 34.8065 31.5489 34.6241 31.6055L30.7154 23.0342L31.9452 23.0063L36.0285 30.1918ZM28.3733 24.5078C28.6866 25.6307 28.7995 26.7287 28.6914 27.5994C28.5903 28.4128 28.3248 28.7655 28.1282 28.8205C27.7958 28.9126 27.125 28.4047 26.5026 27.2868C26.7094 26.1875 26.4737 24.638 25.8556 23.0809C25.7157 22.7274 25.5568 22.3809 25.3838 22.0467C25.4943 21.3193 25.7422 20.9978 25.9298 20.9453C26.1267 20.8909 26.5366 21.0548 27.0442 21.6981C27.5876 22.3866 28.0597 23.3846 28.3733 24.5078ZM24.3547 22.399C24.5404 22.7438 24.7088 23.1065 24.8555 23.4773C25.4256 24.9137 25.6394 26.3531 25.413 27.2344C25.3684 27.4091 25.2641 27.7138 25.0677 27.7919C24.5633 27.9923 23.633 26.9823 23.1081 26.1725C22.8778 25.4992 22.5385 24.7927 22.1118 24.1045C21.3596 21.9634 21.5658 20.3858 22.0499 20.1936C22.2468 20.1157 22.5857 20.2532 22.9559 20.5622C23.4346 20.9613 23.9313 21.6139 24.3547 22.399ZM22.3173 27.3768C22.4607 28.1836 22.3112 28.5989 22.1395 28.7095C22.0833 28.7456 22.012 28.7631 21.9215 28.7631C21.2395 28.7631 19.8977 27.8042 18.7539 26.0271C18.1229 25.0467 17.6908 24.0309 17.5372 23.1672C17.3937 22.3604 17.5433 21.945 17.715 21.8345C17.771 21.7984 17.8424 21.7809 17.9329 21.7809C18.615 21.7809 19.9569 22.7397 21.1005 24.5169C21.7317 25.4973 22.1638 26.513 22.3173 27.3768ZM19.5956 28.7359C20.3145 29.4501 20.8367 30.2645 21.0657 31.0292C21.258 31.6712 21.2121 32.1967 20.9398 32.4708C20.7763 32.6353 20.5301 32.7188 20.2079 32.7188C19.3368 32.7188 18.1547 32.1036 17.1961 31.1516C15.6968 29.6623 15.2844 27.988 15.8518 27.4166C16.0154 27.2521 16.2616 27.1686 16.5838 27.1686C17.4549 27.1686 18.637 27.7838 19.5956 28.7359ZM11.1881 31.6664C11.7687 31.8213 11.9832 32.0532 11.9917 32.1138C11.9917 32.1138 11.9913 32.1177 11.9909 32.1192C11.985 32.1376 11.9631 32.1717 11.9186 32.2145C11.7155 32.1909 11.507 32.1784 11.2957 32.1784C10.5391 32.1784 9.82893 32.332 9.30365 32.6023C8.97061 32.5309 8.68188 32.4191 8.49514 32.2863C8.36658 32.1949 8.33507 32.1268 8.33421 32.115C8.33453 32.1125 8.3384 32.1007 8.35271 32.0795C8.50137 31.8561 9.16144 31.5414 10.1629 31.5414C10.5269 31.5415 10.8814 31.5847 11.1881 31.6664ZM21.642 40.8977C19.4359 40.5572 17.3862 39.9567 15.5419 39.1104C14.6932 37.8046 14.5615 36.4556 15.2164 35.645C15.3931 35.4267 15.9061 35.0693 16.4788 34.959C17.617 34.764 19.1395 35.2211 20.4195 36.2564C21.3036 36.9714 21.874 37.8934 22.0257 38.8523C22.1429 39.594 22.0034 40.3232 21.642 40.8977ZM26.433 35.4488C27.7153 34.3541 30.0489 34.9744 31.6354 36.8316C32.5489 37.9012 32.8823 39.2191 32.5554 40.4099C30.877 40.8277 29.1209 41.085 27.3262 41.1756C27.212 41.058 27.0982 40.9335 26.9864 40.8027C26.1974 39.8789 25.7164 38.7959 25.6323 37.7532C25.5533 36.7755 25.8377 35.9572 26.433 35.4488ZM44.5333 30.6739C44.1188 28.6012 42.3733 27.0407 40.2887 27.0407C40.1471 27.0407 40.0068 27.0486 39.8676 27.0626C40.3463 26.7752 40.8914 26.6136 41.4558 26.6136C43.0354 26.6136 44.4098 27.864 44.6722 29.5297C44.6558 29.912 44.6087 30.2939 44.5333 30.6739ZM43.4252 26.0453L42.8284 24.1508C43.4351 24.9262 43.8976 25.7436 44.2083 26.5899C43.9669 26.3799 43.7044 26.1971 43.4252 26.0453ZM42.1572 25.6002C41.9281 25.5599 41.6939 25.5379 41.4559 25.5379C41.1538 25.5379 40.856 25.5726 40.5664 25.6374L38.9776 20.2764L40.3465 19.8523L42.1572 25.6002ZM16.4845 23.346C16.6487 24.2702 17.0719 25.3103 17.6344 26.2603C17.2724 26.1517 16.9184 26.0928 16.5838 26.0928C16.1833 26.0928 15.823 26.1771 15.5188 26.3394C15.3593 26.4246 14.5982 27.0717 14.5982 27.0717C13.504 25.6394 12.1061 24.8423 10.9851 24.9855L9.63605 24.4184C9.28031 24.2688 9.03203 23.9186 9.05344 23.5333C9.08227 23.0132 9.58302 22.7373 9.7872 22.699C13.2875 22.043 15.7657 23.0108 16.4845 23.346ZM8.23804 30.2263C8.20049 29.1614 8.38799 28.1125 8.79494 27.0906L9.31807 26.839C9.28601 27.069 9.27568 27.3155 9.28924 27.5775C9.33636 28.4894 9.66381 29.5079 10.2156 30.4674C10.1979 30.4673 10.1805 30.4658 10.1628 30.4658C9.44845 30.4658 8.79225 30.6008 8.28623 30.8337C8.26256 30.6318 8.24514 30.4292 8.23804 30.2263ZM13.7345 36.731C13.709 37.2276 13.7847 37.7563 13.9589 38.2926C13.2954 37.9072 12.6809 37.4907 12.1184 37.0447C12.7389 37.0283 13.291 36.9161 13.7345 36.731ZM23.0882 38.6842C23.0034 38.148 22.8196 37.6239 22.5478 37.13C22.8392 37.1744 23.1579 37.2038 23.4975 37.2038C23.8332 37.2038 24.1888 37.1742 24.5551 37.1055C24.5384 37.3425 24.5398 37.5877 24.5601 37.8398C24.6537 38.9993 25.1414 40.1867 25.9404 41.2191C25.8113 41.2205 25.6818 41.2226 25.5536 41.2226C25.5534 41.2226 25.5532 41.2226 25.553 41.2226C24.6075 41.2226 23.6719 41.1853 22.7499 41.1132C23.1002 40.3885 23.2234 39.5391 23.0882 38.6842ZM25.8644 13.2783C26.014 13.273 26.1645 13.2699 26.3149 13.2665L27.334 14.8719C26.2381 15.6823 25.4296 16.8575 25.0847 18.2275L22.7698 15.4187C21.9525 14.4268 20.5257 14.2103 19.4508 14.9144C18.3022 15.667 17.9708 17.2196 18.7119 18.3753L18.7872 18.4927C17.7763 18.1874 16.63 17.8719 15.5696 17.6507L14.3208 15.6834C17.6709 14.297 21.6195 13.4274 25.8644 13.2783ZM13.3233 16.1193L14.1434 17.4112C14.1015 17.4063 14.0601 17.4017 14.019 17.3974C13.0793 17.2995 12.1512 17.7613 11.6557 18.5741L11.6355 18.6073C11.0963 19.4925 11.1833 20.6097 11.7849 21.4035C11.104 21.4234 10.3709 21.4951 9.58872 21.6418C9.04677 21.7433 8.57108 22.0709 8.28322 22.5406L8.2631 22.5736C7.96609 23.0604 7.89606 23.6504 8.07108 24.1924C8.17941 24.5277 8.37487 24.8225 8.63261 25.051C7.59475 26.7112 7.09937 28.4621 7.16284 30.264C7.17973 30.7475 7.24073 31.2304 7.33937 31.7036C7.28558 31.8357 7.25826 31.9732 7.25826 32.1148C7.25826 32.4613 7.42618 32.7905 7.73459 33.0557C8.04946 33.8818 8.49352 34.684 9.0572 35.445C9.08033 35.9779 9.48577 36.4251 10.139 36.7105C10.7105 37.2934 11.3508 37.8387 12.0559 38.3437C11.4223 38.034 10.8125 37.7015 10.231 37.3454C6.20846 34.8819 3.92468 31.5739 3.80032 28.0308C3.63176 23.226 7.42468 18.8422 13.3233 16.1193ZM42.7542 39.7025C38.5744 42.5917 32.9315 44.3001 26.8652 44.513C23.3433 44.6363 19.9049 44.2418 16.7647 43.3681C18.6474 43.2871 19.7684 43.2231 19.7886 43.2219C20.0852 43.2049 20.3117 42.9506 20.2946 42.6541C20.2775 42.3574 20.0242 42.1308 19.7266 42.1481C19.6897 42.1503 15.9974 42.3612 10.6805 42.5029C5.43049 40.2601 1.98836 36.1476 1.16618 35.0937L3.23159 30.8577C4.17145 33.6847 6.38229 36.2498 9.6694 38.2629C13.9183 40.8651 19.5592 42.2983 25.5529 42.2984C25.5531 42.2984 25.5532 42.2984 25.5534 42.2984C25.9932 42.2984 26.4404 42.2907 26.8823 42.2751C33.1501 42.055 38.9964 40.3106 43.3444 37.3631C45.8031 35.6963 47.6225 33.7542 48.7302 31.6601C48.1172 34.6232 46.0562 37.4202 42.7542 39.7025Z" fill="#383639"/>
<path d="M20.9846 27.9594C21.0861 28.125 21.2628 28.2163 21.4437 28.2163C21.5396 28.2163 21.6366 28.1907 21.7243 28.1369C21.9775 27.9818 22.057 27.6506 21.9018 27.3972L20.8798 25.7298C20.7245 25.4766 20.3933 25.3969 20.1401 25.5524C19.8869 25.7076 19.8074 26.0388 19.9627 26.2921L20.9846 27.9594Z" fill="#383639"/>
<path d="M23.1047 24.834L23.8577 26.5013C23.9475 26.7003 24.1433 26.8179 24.3483 26.8179C24.4223 26.8179 24.4975 26.8025 24.5693 26.7701C24.8401 26.6478 24.9603 26.3293 24.8381 26.0587L24.0851 24.3913C23.9628 24.1204 23.6442 24.0001 23.3735 24.1225C23.1028 24.2448 22.9824 24.5633 23.1047 24.834Z" fill="#383639"/>
<path d="M26.6772 25.8221L27.1613 27.7046C27.2237 27.9474 27.4422 28.1087 27.6819 28.1087C27.7262 28.1087 27.7713 28.1032 27.8162 28.0917C28.1039 28.0177 28.2772 27.7245 28.2032 27.4368L27.7191 25.5543C27.6451 25.2665 27.3516 25.0929 27.0643 25.1672C26.7765 25.2412 26.6032 25.5344 26.6772 25.8221Z" fill="#383639"/>
</g>
<defs>
<clipPath id="clip0_47_1522">
<rect width="50" height="50" fill="white"/>
</clipPath>
</defs>
</svg>
