<svg width="50" height="50" viewBox="0 0 50 50" fill="none" xmlns="http://www.w3.org/2000/svg">
<path d="M27.9659 22.6754C25.6048 21.2774 22.9806 20.3817 20.2575 20.0444C15.6793 19.3698 11.5193 19.9815 9.39204 21.6365C8.49967 22.2795 7.91996 23.269 7.7955 24.3619C7.58862 26.3721 9.77881 26.9298 12.8145 27.7033C15.1846 28.2389 17.4933 29.0165 19.7044 30.024C19.7643 30.0541 19.8306 30.0695 19.8977 30.0689C20.1461 30.0699 20.3483 29.8695 20.3493 29.6211C20.3499 29.4481 20.2513 29.2899 20.0956 29.2144C17.8309 28.1777 15.4646 27.3789 13.0349 26.8309C10.0981 26.0798 8.56904 25.6346 8.69046 24.4563C8.79536 23.6087 9.25038 22.8438 9.94521 22.3471C11.8835 20.836 15.7917 20.2918 20.1316 20.9214C22.7242 21.2466 25.2223 22.1007 27.4712 23.4309C29.2162 24.5552 30.1246 25.8415 29.9582 26.9703C29.9235 27.2187 30.0966 27.4482 30.345 27.483C30.5933 27.5177 30.8229 27.3446 30.8577 27.0962C31.078 25.5851 30.0527 24.0156 27.9659 22.6754Z" fill="#383639"/>
<path d="M27.2598 28.5894C24.9661 29.2595 22.5601 28.3915 21.2604 27.7664L23.2752 27.528C23.6668 27.4765 23.9424 27.1174 23.891 26.7259C23.8556 26.457 23.6711 26.2311 23.4146 26.1429C21.3053 25.4368 18.9173 25.2749 17.0149 25.149C15.7737 25.068 14.0692 24.9556 13.8938 24.6498C13.9478 24.2765 14.6628 23.7143 16.5022 23.3635C18.2335 23.0505 20.0034 23.0141 21.7461 23.2556C24.35 23.6334 26.5222 24.9286 26.918 25.9045C27.0111 26.066 26.995 26.268 26.8775 26.4127C26.7259 26.6101 26.7633 26.893 26.9607 27.0446C27.1581 27.1961 27.441 27.1588 27.5926 26.9614C27.9015 26.5626 27.9622 26.0248 27.75 25.5672C27.1878 24.1416 24.6064 22.7429 21.863 22.3427C20.0216 22.0895 18.1519 22.1273 16.3223 22.4551C14.8967 22.7249 13.1742 23.3006 12.9898 24.4969C12.95 24.7484 13.0186 25.0049 13.1787 25.2029C13.6689 25.8056 14.9776 25.8955 16.943 26.0259C18.7324 26.0933 20.5118 26.3251 22.2588 26.7185L21.013 26.8669C20.6322 26.9098 20.3258 27.1996 20.262 27.5775C20.1995 27.9434 20.3815 28.3075 20.7117 28.477C22.197 29.2423 23.8355 29.6635 25.5058 29.7092C26.1862 29.7133 26.8634 29.6178 27.5161 29.4259C27.7546 29.3563 27.8915 29.1067 27.8219 28.8682C27.7411 28.6383 27.4917 28.5146 27.2598 28.5894Z" fill="#383639"/>
<path d="M6.54516 25.8595C6.80472 25.8595 7.01513 25.6491 7.01513 25.3895C7.01513 25.13 6.80472 24.9196 6.54516 24.9196C6.28561 24.9196 6.0752 25.13 6.0752 25.3895C6.0752 25.6491 6.28561 25.8595 6.54516 25.8595Z" fill="#383639"/>
<path d="M8.04683 20.4948C7.79846 20.4951 7.59732 20.6967 7.59766 20.945C7.59799 21.1844 7.78576 21.3816 8.0249 21.3936C8.27293 21.406 8.48419 21.215 8.49656 20.967C8.49689 20.9593 8.49712 20.9516 8.49712 20.9439C8.49678 20.6956 8.29519 20.4944 8.04683 20.4948Z" fill="#383639"/>
<path d="M9.21655 28.2925C9.47611 28.2925 9.68652 28.0821 9.68652 27.8225C9.68652 27.563 9.47611 27.3525 9.21655 27.3525C8.95699 27.3525 8.74658 27.563 8.74658 27.8225C8.74658 28.0821 8.95699 28.2925 9.21655 28.2925Z" fill="#383639"/>
<path d="M44.8747 23.5433C44.6353 23.5437 44.4381 23.7314 44.4261 23.9706C44.4137 24.2186 44.6048 24.4299 44.8528 24.4422C44.8604 24.4426 44.8682 24.4428 44.8758 24.4428C45.1242 24.4425 45.3253 24.2409 45.325 23.9925C45.3247 23.7441 45.1231 23.543 44.8747 23.5433Z" fill="#383639"/>
<path d="M43.1477 24.2944C42.9083 24.2948 42.7111 24.4825 42.6991 24.7217C42.6867 24.9697 42.8777 25.181 43.1257 25.1933C43.1334 25.1937 43.1411 25.1939 43.1488 25.1939C43.3971 25.1936 43.5983 24.992 43.598 24.7436C43.5976 24.4952 43.396 24.2941 43.1477 24.2944Z" fill="#383639"/>
<path d="M41.759 23.9706C42.0186 23.9706 42.229 23.7602 42.229 23.5006C42.229 23.2411 42.0186 23.0306 41.759 23.0306C41.4995 23.0306 41.2891 23.2411 41.2891 23.5006C41.2891 23.7602 41.4995 23.9706 41.759 23.9706Z" fill="#383639"/>
<path d="M4.19314 25.819C4.44152 25.819 4.64287 25.6177 4.64287 25.3693C4.64287 25.1209 4.44152 24.9196 4.19314 24.9196C3.94476 24.9196 3.74341 25.1209 3.74341 25.3693C3.74341 25.6177 3.94476 25.819 4.19314 25.819Z" fill="#383639"/>
<path d="M49.8003 29.8936C49.778 29.7764 49.71 29.6729 49.6114 29.6057C49.513 29.5378 49.3916 29.512 49.2741 29.5338L47.5246 29.8621L38.3232 31.598L34.0597 32.4031C34.926 31.1913 35.3971 29.7416 35.4089 28.252C35.7912 28.252 36.1779 28.252 36.5692 28.252C40.2885 28.252 44.3406 27.8653 46.913 27.6179C48.0913 27.5055 49.0177 27.4245 49.3685 27.42C49.6169 27.42 49.8183 27.2187 49.8183 26.9703C49.8222 26.9359 49.8222 26.9013 49.8183 26.8669C49.8812 25.6166 46.6702 22.1222 43.7559 20.3053C40.1581 18.0881 36.025 16.676 35.0446 18.2635C34.5949 18.9696 34.4555 20.6021 35.0446 22.2481C35.6574 24.0522 37.073 25.4695 38.8763 26.0843C40.3483 26.5756 41.8728 26.8925 43.4186 27.0288C40.7272 27.269 38.0252 27.3697 35.3235 27.3301C35.2702 27.1446 35.2009 26.964 35.1166 26.7904C34.9907 26.5026 34.8647 26.2013 34.7388 25.891C33.556 23.0217 31.9775 19.1675 23.6934 17.7958C23.7657 17.2672 23.8971 16.7483 24.0847 16.2487L25.1731 17.0178C25.2495 17.0712 25.3407 17.0994 25.4339 17.0987C25.5795 17.097 25.7152 17.025 25.7982 16.9054C25.9403 16.7027 25.8921 16.4235 25.6902 16.2802L24.467 15.4212C24.6773 15.0477 24.9293 14.6992 25.218 14.3824L26.5672 15.3223C26.6413 15.3771 26.7315 15.4055 26.8236 15.4033C26.9699 15.404 27.1075 15.3335 27.1923 15.2144C27.3345 15.0118 27.2862 14.7325 27.0844 14.5892L25.9106 13.7797C26.007 13.7009 26.1076 13.6273 26.2119 13.5594C26.572 13.3516 26.9619 13.1999 27.3677 13.1096L28.7169 14.0676C28.7934 14.121 28.8846 14.1492 28.9778 14.1485C29.1242 14.1493 29.2617 14.0788 29.3465 13.9596C29.4909 13.7575 29.444 13.4766 29.2419 13.3322C29.2407 13.3315 29.2397 13.3307 29.2386 13.33L28.564 12.8803L29.0857 12.7948C29.378 12.7498 29.6749 12.7049 29.9852 12.6509C33.3447 12.0393 36.3174 13.6628 39.8522 15.8485C41.0667 16.586 42.2421 17.3861 43.3736 18.2455C36.6277 14.117 32.7915 13.2535 30.1965 15.0974C29.3915 15.6776 28.9013 17.0493 28.9508 18.5918C28.9508 18.8402 29.1521 19.0416 29.4005 19.0416C29.6489 19.0416 29.8502 18.8402 29.8502 18.5918C29.8387 18.3761 29.8387 18.16 29.8502 17.9442L31.015 18.7627C31.0887 18.8188 31.1789 18.8489 31.2714 18.8482C31.4186 18.848 31.5563 18.7757 31.6402 18.6548C31.7823 18.4522 31.7341 18.1729 31.5322 18.0297L30.0481 16.9458C30.1191 16.7061 30.2204 16.4764 30.3494 16.2622L31.4873 17.0628C31.5625 17.1153 31.6519 17.1435 31.7436 17.1437C31.89 17.1445 32.0275 17.074 32.1124 16.9548C32.2545 16.7522 32.2063 16.4729 32.0045 16.3297L31.015 15.6326C32.9804 14.4363 36.4118 14.5128 46.5172 21.3262H46.5577H46.5937C46.6485 21.3524 46.7084 21.3662 46.7691 21.3667C46.8093 21.3732 46.8503 21.3732 46.8905 21.3667H46.9265C46.9572 21.3562 46.986 21.341 47.012 21.3217C47.0503 21.2927 47.0837 21.2578 47.1109 21.2183C47.1263 21.1877 47.1398 21.1561 47.1514 21.1238C47.1559 21.1001 47.1559 21.0756 47.1514 21.0519C47.1581 21.0238 47.1581 20.9945 47.1514 20.9664C47.1536 20.938 47.1536 20.9094 47.1514 20.881C47.1427 20.8577 47.1323 20.8351 47.1199 20.8135C47.1111 20.7816 47.0974 20.7513 47.0794 20.7236C45.3434 18.367 42.6541 16.595 40.2705 15.1199C36.5692 12.8308 33.4481 11.1353 29.7873 11.7694L28.8878 11.9133C27.6106 12.1157 26.5087 12.2911 25.6498 12.8128C24.04 13.9405 23.0021 15.7141 22.8075 17.6699L21.7506 17.5395C21.4088 17.5035 21.0715 17.49 20.7252 17.481C21.5553 16.4322 22.1961 15.2466 22.6186 13.9776C22.6984 13.7424 22.5725 13.4871 22.3374 13.4071C22.3367 13.4069 22.336 13.4067 22.3353 13.4065L20.1361 12.6779C21.2694 11.5671 22.3847 10.2673 22.5421 10.0874C25.6498 7.16419 33.2547 9.4893 42.8879 16.3162C42.9644 16.3696 43.0556 16.3978 43.1488 16.3972C43.2952 16.3979 43.4327 16.3274 43.5175 16.2083C43.6619 16.0061 43.615 15.7253 43.4129 15.5809C43.4117 15.5801 43.4107 15.5793 43.4096 15.5786C33.2277 8.38296 25.3889 6.13431 21.9035 9.45332L21.872 9.4848C21.872 9.4848 20.4374 11.1713 19.1736 12.3586L2.87542 6.93033L1.17544 6.36817C0.940009 6.28902 0.685012 6.41573 0.605859 6.65116C0.605297 6.65274 0.604847 6.65431 0.604285 6.656C-1.16642 11.9139 1.05975 17.6873 5.90211 20.3953C5.78372 20.6577 5.70636 20.9368 5.67275 21.2228C5.65442 21.5814 5.47408 21.9124 5.18254 22.1222L5.11508 22.1717C4.9172 22.3128 4.70268 22.4291 4.47646 22.518C2.67754 23.2286 1.47676 24.5193 1.32835 25.81C1.29046 25.8605 1.26426 25.919 1.2519 25.9809C1.05626 27.1393 1.35477 28.3267 2.0749 29.2549C2.97436 30.3253 4.43599 30.8695 6.47776 30.8695H6.62617C6.99495 30.8695 7.23781 31.0854 7.5886 31.4406C7.89306 31.8535 8.36697 32.1078 8.87932 32.1332C10.7277 32.0523 12.0814 33.1406 12.8909 34.0671C13.4415 34.7595 14.2919 35.1445 15.1755 35.1014C15.9982 35.1181 16.8067 35.3194 17.5411 35.6906C17.6014 35.7198 17.6675 35.7351 17.7345 35.7356C17.9065 35.7359 18.0636 35.6382 18.1393 35.4837C18.2429 35.2579 18.144 34.991 17.9182 34.8874C17.917 34.8868 17.9156 34.8862 17.9144 34.8856C17.0757 34.4641 16.1544 34.2322 15.216 34.2065C14.5189 34.166 14.1367 34.1435 13.561 33.4824C12.2118 31.9353 10.5748 31.1573 8.82985 31.2338C8.67245 31.2338 8.48356 31.0809 8.21822 30.811C7.82729 30.3147 7.2432 30.0088 6.61268 29.97C4.77778 29.97 3.50505 29.5608 2.78548 28.6883C2.59524 28.4677 2.44323 28.217 2.33575 27.9462C3.3066 28.5759 4.47489 28.8271 5.61878 28.6523C6.13732 28.601 6.66058 28.6298 7.17035 28.7378C7.53823 29.8111 8.68526 30.4055 9.77428 30.0869C9.84939 30.0647 9.92303 30.0377 9.99465 30.006C10.2271 29.8973 10.4918 29.8796 10.7367 29.9565C11.1864 30.1319 12.2973 30.5367 12.5356 30.892C13.1967 31.8274 14.0512 32.7449 15.3509 32.484C15.6239 32.5868 15.8756 32.7392 16.093 32.9337C16.6642 33.352 17.3747 33.8737 18.1573 33.6353C18.2381 33.6568 18.3113 33.7004 18.3686 33.7612C18.7869 35.1869 20.5228 35.9334 22.2408 35.4342C22.3934 35.3898 22.5436 35.3372 22.6905 35.2768C22.9286 35.1746 23.1958 35.1635 23.4416 35.2454C24.6606 35.6868 25.9454 35.9194 27.2418 35.9334H27.5027C29.1466 40.5531 33.5142 43.6429 38.4176 43.6553C39.135 43.6458 39.8501 43.5705 40.5538 43.4304C46.8402 42.2379 50.9759 36.1832 49.8003 29.8936ZM39.1417 25.2748C37.5922 24.7454 36.3772 23.5254 35.8541 21.9738C35.3729 20.5886 35.5079 19.217 35.7912 18.7582C36.2094 18.0881 39.3261 18.6593 43.2657 21.0968C46.0765 22.8328 48.2622 25.4682 48.7974 26.4936C48.4916 26.4666 48.0463 26.4486 47.4122 26.4216C45.276 26.3407 41.7006 26.2058 39.1417 25.2748ZM47.2278 30.838C47.5055 32.8701 47.0718 34.9357 46.0001 36.6845L39.5554 32.2816L47.2278 30.838ZM45.4919 37.4445C44.2515 39.0715 42.486 40.2189 40.4954 40.6916L39.0472 33.0462L45.4919 37.4445ZM39.6094 40.8355C37.5771 41.1177 35.51 40.6836 33.7629 39.6077L38.1658 33.1901L39.6094 40.8355ZM37.4012 32.6819L33.0253 39.1265C31.3899 37.8898 30.2343 36.1238 29.7558 34.13L37.4012 32.6819ZM20.7882 13.8157L21.6382 14.099C21.1574 15.3513 20.4449 16.5017 19.5379 17.49L18.6385 17.5215H18.2742C19.3912 16.5006 20.2524 15.2311 20.7882 13.8157ZM19.9157 13.5504C19.2853 15.1714 18.1901 16.5702 16.7676 17.571H16.7046C16.4033 17.571 16.0795 17.571 15.7377 17.5395L12.5041 11.0858L19.9157 13.5504ZM14.6674 17.4405C14.4245 17.409 14.1771 17.3731 13.9253 17.3236C13.8309 17.3011 13.7229 17.2831 13.6195 17.2561L13.3182 17.1842C13.0933 17.1257 12.8684 17.0673 12.6301 16.9908C11.6991 16.6895 10.9391 17.3461 10.6198 17.7958C10.3664 18.1175 9.96587 18.2873 9.55841 18.2455H9.45048L11.6991 11.4996L14.6674 17.4405ZM8.47007 18.34L8.23621 18.3985C8.16425 18.4177 8.09364 18.4417 8.02483 18.4704C6.26864 17.696 4.81174 16.3717 3.87382 14.6972L10.8446 11.2028L8.47007 18.34ZM3.03733 7.93323L10.4444 10.3978L3.46907 13.8922C2.64213 12.0151 2.48955 9.90991 3.03733 7.93323ZM1.33735 7.36657L2.18734 7.6499C1.53298 9.96545 1.75559 12.441 2.81246 14.6027C2.81819 14.6385 2.82876 14.6733 2.84394 14.7062C2.86452 14.7479 2.89195 14.7858 2.92489 14.8186C3.83751 16.5993 5.27575 18.0564 7.04442 18.9921C6.79134 19.1713 6.56433 19.3847 6.36983 19.6262C2.03634 17.2153 -0.0524336 12.1269 1.33735 7.36657ZM27.3677 33.6623C27.1235 33.7076 26.9623 33.9423 27.0076 34.1865C27.0077 34.1871 27.0078 34.1878 27.0079 34.1885C27.0619 34.4718 27.1339 34.7462 27.2058 35.025C26.0182 35.0064 24.8418 34.7907 23.7249 34.3864C23.2647 34.2246 22.7605 34.2422 22.3128 34.4358C22.2048 34.4808 22.0969 34.5213 21.98 34.5573C20.7387 34.9215 19.502 34.4448 19.2276 33.4959C19.0334 32.9668 18.487 32.6538 17.9324 32.7538C17.5411 32.8708 17.0734 32.529 16.6192 32.1962C16.165 31.8634 15.6837 31.5126 15.171 31.6115C14.5189 31.742 13.9883 31.3957 13.2642 30.3793C12.8819 29.8441 11.951 29.4798 11.0155 29.1245C10.5572 28.9639 10.0545 28.9865 9.61238 29.1875L9.48646 29.2325C8.84267 29.4204 8.16852 29.051 7.98054 28.4072C7.98031 28.4064 7.98009 28.4057 7.97986 28.405C7.97739 28.384 7.97739 28.3629 7.97986 28.342V28.279C7.94973 28.1039 7.81931 27.9629 7.64706 27.9192C6.95256 27.7432 6.23322 27.6868 5.51984 27.7528C3.89181 27.9237 2.56511 27.3796 2.28628 26.4396C1.97146 25.3648 3.05981 24.0381 4.81826 23.35C5.1098 23.234 5.38615 23.083 5.64126 22.9003L5.70872 22.8553C6.21062 22.4921 6.52667 21.926 6.57221 21.3082C6.60515 20.9976 6.70982 20.6989 6.87802 20.4357C7.1844 19.9632 7.6311 19.5983 8.15526 19.3924C8.25319 19.3497 8.35381 19.3137 8.45658 19.2844C8.79117 19.1819 9.14163 19.1407 9.49096 19.163C10.213 19.2361 10.9197 18.9212 11.3483 18.3355C11.3483 18.3355 11.7981 17.7014 12.3108 17.8858C12.5716 17.9712 12.8325 18.0387 13.0843 18.1061L13.2867 18.1511L13.9208 18.286H14.0422L14.8113 18.394H14.8607L15.4184 18.4434H15.5983H15.6388L16.3718 18.4704H16.916C17.5231 18.4704 18.1123 18.4434 18.6744 18.4209C19.6731 18.3486 20.6755 18.3486 21.6741 18.4209C31.1185 19.4283 32.6566 23.1926 33.9068 26.2283C34.0372 26.5476 34.1632 26.8579 34.2936 27.1547C34.8557 28.4139 34.4105 30.793 32.715 32.6549L29.1172 33.334L27.3677 33.6623ZM39.9549 42.6214C34.4396 43.4336 29.2256 39.873 27.9748 34.4403L27.9883 34.4628L28.8877 34.2964C29.4391 36.6745 30.8606 38.7601 32.8723 40.1429H32.9218C37.3754 43.1607 43.4298 42.0177 46.4767 37.584C46.4882 37.5746 46.4988 37.564 46.5081 37.5525V37.5255C47.8788 35.5107 48.4495 33.0575 48.1092 30.6446L48.9772 30.4827C49.8378 36.3262 45.7984 41.7608 39.9549 42.6214Z" fill="#383639"/>
</svg>
