<svg width="50" height="50" viewBox="0 0 50 50" fill="none" xmlns="http://www.w3.org/2000/svg">
<g clip-path="url(#clip0_47_1517)">
<path d="M42.5077 9.35703C37.8214 7.17003 31.6036 5.96558 24.9999 5.96558C18.3963 5.96558 12.1786 7.17003 7.49214 9.35703C2.66082 11.6117 0 14.6636 0 17.9509C0 23.9948 2.60848 29.6733 7.34492 33.9404C8.72026 35.1794 10.2281 36.2549 11.8385 37.1587C11.8223 37.2935 11.8132 37.4283 11.8132 37.5622C11.8132 41.1914 17.6055 44.0342 25.0001 44.0342C32.3946 44.0342 38.1869 41.1914 38.1869 37.5622C38.1869 37.4282 38.1778 37.2934 38.1616 37.1587C39.7719 36.2549 41.2797 35.1794 42.6552 33.9404C47.3916 29.6733 50.0001 23.9949 50.0001 17.9509C50 14.6636 47.3392 11.6117 42.5077 9.35703ZM7.99751 10.4399C12.529 8.32537 18.5673 7.16071 24.9999 7.16071C31.4327 7.16071 37.4709 8.32537 42.0025 10.4399C46.3891 12.4871 48.805 15.1545 48.805 17.951C48.805 19.0929 48.4017 20.2134 47.6262 21.279C46.2549 18.97 43.5093 16.9055 39.7738 15.3993C35.6124 13.7212 30.3656 12.7971 25.0001 12.7971C19.6346 12.7971 14.3877 13.7212 10.2263 15.3993C6.49084 16.9055 3.74529 18.97 2.3739 21.2788C1.59833 20.2133 1.19501 19.0928 1.19501 17.9509C1.19501 15.1545 3.61086 12.487 7.99751 10.4399ZM35.2063 27.6902L33.2043 24.9103L38.5981 24.054L40.8198 25.9774C39.1119 26.6753 37.2242 27.2496 35.2063 27.6902ZM42.033 25.4473L39.1701 22.9687C39.0368 22.8534 38.8598 22.8032 38.6852 22.8303L32.0588 23.8822C31.8539 23.9147 31.6807 24.0512 31.601 24.2427C31.5211 24.4342 31.5465 24.6533 31.6676 24.8216L33.9202 27.9495C31.1222 28.4689 28.1075 28.7415 24.9999 28.7415C21.9842 28.7415 19.0551 28.4855 16.3274 27.9957L21.7718 27.6987C21.963 27.6883 22.1376 27.5869 22.2415 27.426C22.3453 27.2652 22.3656 27.0642 22.2962 26.8856L21.56 24.9922C21.467 24.7531 21.2316 24.5982 20.9753 24.612L16.4524 24.8224C16.1915 24.8346 15.9687 25.0146 15.9023 25.2672L15.3764 27.2658C15.3277 27.4505 15.3704 27.6473 15.4911 27.7954C15.5054 27.813 15.5207 27.8297 15.5369 27.8453C12.7537 27.2911 10.1977 26.489 7.99751 25.4624C5.95667 24.5099 4.34292 23.4232 3.20013 22.2517C5.65505 17.4452 14.7069 13.9925 25.0001 13.9925C35.2932 13.9925 44.3451 17.4454 46.8 22.2517C45.6628 23.4167 44.0592 24.4983 42.033 25.4473ZM16.7408 26.7762L16.9463 25.9955L20.6017 25.8253L20.8835 26.5501L16.7408 26.7762ZM24.9999 42.8393C18.6665 42.8393 13.2915 40.5451 13.0198 37.7815C16.6518 39.5773 20.7447 40.5327 24.9999 40.5327C29.2551 40.5327 33.3482 39.5773 36.9801 37.7815C36.7085 40.5451 31.3334 42.8393 24.9999 42.8393ZM24.9999 39.3377C13.5571 39.3377 3.97522 32.046 1.70564 22.3632C2.97367 23.9258 4.92692 25.3478 7.49214 26.5448C12.1786 28.7318 18.3964 29.9363 24.9999 29.9363C31.6035 29.9363 37.8214 28.7318 42.5077 26.5448C45.073 25.3476 47.0262 23.9257 48.2942 22.3632C46.0247 32.046 36.4428 39.3377 24.9999 39.3377Z" fill="#383639"/>
<path d="M17.7585 20.504L15.2341 18.821C15.1251 18.7485 14.9951 18.7137 14.8646 18.7219L9.92098 19.0375C9.61721 19.0568 9.37665 19.3014 9.36219 19.6053L9.25703 21.8141C9.24867 21.9889 9.31738 22.1585 9.44489 22.2782C9.55626 22.3828 9.70277 22.44 9.85382 22.44C9.87581 22.44 9.8978 22.4388 9.91991 22.4364L17.4931 21.595C17.7426 21.5673 17.9482 21.3864 18.0076 21.1424C18.0669 20.8985 17.9674 20.6433 17.7585 20.504ZM10.484 21.1714L10.5304 20.196L14.7392 19.9274L15.7307 20.5884L10.484 21.1714Z" fill="#383639"/>
<path d="M29.7657 22.1374L25.6636 19.1923C25.5139 19.0849 25.3233 19.0528 25.1465 19.1045L21.5703 20.1563C21.3958 20.2077 21.2542 20.3356 21.1856 20.5039C21.1169 20.6723 21.1287 20.8628 21.2176 21.0215L22.6902 23.651C22.7967 23.8411 22.997 23.9566 23.2114 23.9566C23.2348 23.9566 23.2583 23.9552 23.2819 23.9524L29.4877 23.2162C29.7326 23.1871 29.9344 23.0107 29.996 22.772C30.0575 22.5332 29.966 22.2812 29.7657 22.1374ZM22.6263 21.0913L24.0601 20.6697L23.2166 22.1457L22.6263 21.0913ZM24.3186 22.6259L25.5051 20.5496L27.8189 22.2107L24.3186 22.6259Z" fill="#383639"/>
<path d="M37.1362 16.0979C37.0195 15.9568 36.8442 15.8789 36.662 15.8812L32.0338 15.9863C31.7863 15.9919 31.568 16.1496 31.4846 16.3827L30.4327 19.3279C30.3645 19.5191 30.398 19.7318 30.5215 19.8928C30.6352 20.0408 30.8107 20.1264 30.9954 20.1264C31.0117 20.1264 31.028 20.1257 31.0443 20.1244L38.7228 19.4933C38.9446 19.4752 39.1379 19.3351 39.2243 19.13C39.311 18.925 39.2763 18.6888 39.1345 18.5172L37.1362 16.0979ZM31.8699 18.8575L32.4719 17.1718L36.3995 17.0825L37.4845 18.3961L31.8699 18.8575Z" fill="#383639"/>
<path d="M27.4907 16.636C27.4907 15.0434 24.2391 14.6184 22.3178 14.6184C20.3964 14.6184 17.1448 15.0434 17.1448 16.636C17.1448 18.2284 20.3964 18.6534 22.3178 18.6534C24.2391 18.6534 27.4907 18.2284 27.4907 16.636ZM22.3179 15.8134C24.6973 15.8134 26.0169 16.3587 26.27 16.636C26.0169 16.9131 24.6973 17.4584 22.3179 17.4584C19.9385 17.4584 18.6187 16.9131 18.3656 16.636C18.6187 16.3588 19.9385 15.8134 22.3179 15.8134Z" fill="#383639"/>
</g>
<defs>
<clipPath id="clip0_47_1517">
<rect width="50" height="50" fill="white"/>
</clipPath>
</defs>
</svg>
