<svg width="50" height="50" viewBox="0 0 50 50" fill="none" xmlns="http://www.w3.org/2000/svg">
<path d="M46.9323 22.131C46.9323 21.4966 47.2474 17.6868 45.2195 15.8146C45.0994 14.0254 43.7825 12.5322 42.0292 12.1936C41.7148 11.9061 41.3839 11.6178 41.04 11.3322C40.7811 9.62597 39.3933 8.27267 37.6931 8.01734C37.2414 7.94958 36.7782 7.96046 36.3307 8.05199C35.2678 7.42586 34.1472 6.82987 32.9888 6.27677C32.1584 5.22357 30.8281 4.65338 29.4999 4.77879C28.484 4.38763 27.4325 4.02569 26.3656 3.69809C25.9926 2.62033 25.1539 1.73886 24.0956 1.31413C23.1048 0.916439 21.9756 0.939595 21.0023 1.37769C20.4466 1.62774 19.9497 2.00554 19.5626 2.47627C18.7669 0.513466 16.4813 -0.505078 14.4954 0.249739C13.9611 0.452857 13.4709 0.770977 13.0681 1.17644C11.1709 0.314855 8.86885 1.11769 7.91247 2.96332C5.79877 3.79273 3.87264 5.31821 3.25101 7.58872C3.12109 8.06334 3.05644 8.55396 3.05038 9.04552C3.04836 9.20932 3.05628 23.8769 3.05628 23.8769L3.05644 26.9494C3.05659 27.7591 3.05815 29.4789 3.05815 29.4789C3.05908 30.436 3.01588 31.3996 3.22133 32.3407C3.40424 33.1784 3.7219 33.9832 4.12005 34.7411C4.95521 36.331 6.11797 37.7351 7.3945 38.9889C9.98856 41.5373 13.0987 43.5458 16.3401 45.169C19.7423 46.8729 23.3611 48.1744 27.0719 49.0166C30.708 49.8418 34.5351 50.2752 38.2523 49.8079C41.3668 49.4165 45.0624 48.2737 46.5009 45.1936C46.5315 45.128 46.564 45.0455 46.5966 44.9535C46.8244 44.3132 46.932 43.6361 46.932 42.9565V22.131H46.9323ZM18.7786 4.85696C19.6212 4.85696 20.4172 5.31573 20.8486 6.03775C20.2806 6.65985 19.9286 7.44994 19.8309 8.27687C19.2342 7.70217 18.4634 7.31878 17.6289 7.20005C17.3984 6.7576 17.0876 6.36007 16.7101 6.03262C17.1367 5.3134 17.9134 4.85696 18.7786 4.85696ZM45.28 19.6698C44.645 19.4348 44.0042 19.3612 43.3305 19.4614C43.913 19.1063 44.3876 18.6095 44.7174 18.0244C45.0198 18.3085 45.3048 19.1891 45.28 19.6698ZM38.484 21.7821C38.4044 20.6871 37.8802 19.6964 37.0762 19.0123C37.5309 18.0483 38.5925 17.4862 39.6455 17.6624C40.6928 17.8377 41.5273 18.6965 41.6427 19.757C41.709 20.3668 41.5429 20.9959 41.1746 21.4878C40.2682 21.2673 39.3119 21.3765 38.484 21.7821ZM20.4329 17.6525C20.5544 17.0921 20.8712 16.5901 21.3422 16.2387C21.8459 15.9097 22.3881 15.7206 22.9981 15.773C23.5947 15.8241 24.1534 16.1068 24.5573 16.5475C23.6351 17.4476 23.2296 18.7605 23.4397 20.0276C23.1866 19.9828 22.9294 19.9621 22.6716 19.9667C22.2872 18.9191 21.4692 18.0725 20.4329 17.6525ZM15.357 16.032C15.1229 15.0534 15.548 13.9887 16.3954 13.4445C17.3181 12.8519 18.5598 12.9705 19.3555 13.723C19.78 14.1246 20.0442 14.6755 20.0952 15.2575C19.4827 15.8208 19.0681 16.5555 18.9023 17.3639C18.6221 17.3668 18.345 17.4001 18.0741 17.4619C17.3998 16.6453 16.4178 16.1248 15.357 16.032ZM11.2256 11.9277C11.7447 11.5168 12.4224 11.3355 13.0857 11.4324C13.8449 11.5435 14.5077 12.0278 14.8626 12.7049C14.3964 13.1865 14.0662 13.7758 13.8885 14.408C13.1376 13.7082 12.1295 13.3118 11.1019 13.3262C11.0999 12.9456 11.0424 12.5668 10.9324 12.204C11.1732 11.9342 11.1209 12.0107 11.2256 11.9277ZM18.0825 8.9344C18.3989 9.08095 18.6829 9.29619 18.9098 9.561C19.4554 10.1982 19.6165 11.077 19.3578 11.8729C18.3515 11.4087 17.1738 11.3968 16.1527 11.8248C15.817 11.2506 15.3417 10.7653 14.7722 10.4213C15.0735 9.42052 16.0182 8.67907 17.0623 8.71108C17.0753 8.71155 17.7521 8.78132 18.0825 8.9344ZM33.467 15.0413C33.9167 15.3557 34.2507 15.809 34.4097 16.3352C34.5668 16.8554 34.5268 17.3703 34.3595 17.8805C34.3357 17.944 34.3055 18.0051 34.2763 18.0665C33.2202 18.1249 32.2282 18.5984 31.5223 19.3635C31.445 19.3444 31.3688 19.322 31.2942 19.2954C31.2717 18.0976 30.7072 17.0074 29.8181 16.2875C30.2946 14.8104 32.15 14.1578 33.4447 15.027C33.4522 15.032 33.4597 15.0366 33.467 15.0413ZM27.9032 17.0277C28.8005 17.2464 29.5156 18.0091 29.6974 18.9117C29.8857 19.847 29.4605 20.8279 28.679 21.3649C27.789 21.9762 26.5575 21.8799 25.7465 21.1779C24.8829 20.4305 24.6945 19.1055 25.2728 18.1231C25.7687 17.2804 26.9 16.7833 27.9032 17.0277ZM23.2142 11.5041C22.8949 12.3804 22.8986 13.3559 23.2083 14.2312C22.6378 14.1692 22.0608 14.2316 21.5186 14.4144C21.3571 13.8262 21.0626 13.284 20.6523 12.8277C21.0152 12.0662 21.128 11.2007 20.9689 10.3694C21.8282 9.98247 22.8666 10.1615 23.5642 10.79C23.5544 10.805 23.2985 11.2728 23.2142 11.5041ZM32.1022 22.667C31.8944 21.8281 32.1393 20.9081 32.7779 20.3006C33.4853 19.6277 34.5683 19.4187 35.4652 19.8186C36.2697 20.1774 36.8499 20.9743 36.9324 21.8528C37.0182 22.7656 36.5457 23.6792 35.7735 24.165C34.895 24.7178 33.7346 24.6146 32.9394 23.9826C32.8324 23.8975 32.2461 23.2478 32.1022 22.667ZM37.338 16.5732C36.8047 16.8703 36.3428 17.2891 35.9948 17.7914C36.2478 16.4899 35.8205 15.1098 34.8471 14.1713C35.5836 13.0348 37.1455 12.7349 38.254 13.5107C37.9778 13.835 37.753 14.2015 37.5926 14.6C37.3407 15.2256 37.2552 15.9071 37.338 16.5732ZM33.7621 9.84431C33.124 10.8726 32.9858 12.1485 33.4006 13.2883C32.5838 13.0121 31.6849 13.0114 30.8664 13.2812C30.948 12.4709 30.7762 11.6506 30.3751 10.9415C30.7032 10.2227 31.3777 9.70787 32.139 9.56489C32.399 9.51609 32.6691 9.51065 32.939 9.55525C33.2328 9.60048 33.5095 9.69963 33.7621 9.84431ZM29.3345 12.8864C29.3345 13.8336 28.7349 14.7339 27.8645 15.1055C26.8669 15.5312 25.6419 15.1973 24.9954 14.3272C24.3978 13.5233 24.3653 12.3742 24.9265 11.5428C25.4972 10.6972 26.5956 10.2874 27.5793 10.5676C28.591 10.8557 29.3345 11.8332 29.3345 12.8864ZM26.4884 5.85282C26.5223 5.69958 26.5449 5.54387 26.5605 5.38768C26.8312 5.47517 27.1011 5.56407 27.3689 5.65591C27.1677 5.82034 26.9827 6.00403 26.8167 6.20513C26.7148 6.08096 26.6049 5.96378 26.4884 5.85282ZM25.6172 7.1915C26.0263 7.69254 26.226 8.34898 26.1493 9.00558C25.6011 9.11732 25.0841 9.34374 24.6317 9.66357C23.7532 8.85965 22.5351 8.47937 21.3563 8.65358C21.3876 7.76604 21.913 6.92886 22.7219 6.54998C23.4951 6.18772 24.4587 6.24724 25.1497 6.75434C25.371 6.91674 25.483 7.02723 25.6172 7.1915ZM15.846 7.35219C14.653 7.74366 13.6985 8.6988 13.3104 9.89342C12.8391 9.8238 12.3559 9.83981 11.89 9.93942C11.6749 9.40839 11.6489 8.80184 11.8337 8.25604C12.113 7.57986 12.5638 7.03765 13.2653 6.77237C13.9452 6.51516 14.7243 6.58479 15.3483 6.95714C15.5321 7.06686 15.699 7.20036 15.846 7.35219ZM10.1659 10.7878C9.46966 9.9674 8.45546 9.45735 7.38082 9.39348C7.31026 8.56251 7.69163 7.72206 8.35989 7.22414C9.03949 6.71782 9.95904 6.6297 10.7334 6.96569C10.6012 7.18295 10.4888 7.41171 10.4016 7.64887C10.0128 8.54681 10.0904 9.67274 10.4627 10.5592C10.36 10.6305 10.2611 10.707 10.1659 10.7878ZM5.04737 9.53148C4.79778 8.89058 4.83306 8.16094 5.15336 7.54117C5.53364 6.80562 6.27696 6.32308 7.10046 6.25532C6.18962 7.10447 5.70661 8.36623 5.83809 9.60654C5.6244 9.68082 5.41802 9.77438 5.21972 9.88456C5.0612 9.61835 5.09461 9.6527 5.04737 9.53148ZM5.74096 11.3891C6.94459 10.5314 8.71111 10.9813 9.33678 12.3534C9.504 12.7863 9.59134 13.2199 9.52591 13.6857C8.75898 14.0392 8.11683 14.6352 7.71075 15.3761C6.61 14.1765 5.79084 12.9902 5.26587 11.8391C5.35725 11.7257 5.68268 11.4306 5.74096 11.3891ZM10.6096 14.9465C11.7176 14.6867 12.9394 15.2769 13.4007 16.3613C12.4263 16.7932 11.675 17.5933 11.3064 18.5772C10.4259 17.9206 9.61683 17.2461 8.88657 16.5606C9.06948 15.9769 9.46235 15.4898 10.0033 15.1851C10.1392 15.1075 10.4016 14.9953 10.6096 14.9465ZM14.6544 17.5973C15.3419 17.4954 16.0521 17.6969 16.5833 18.151C15.6681 18.8359 15.1079 19.883 15.009 20.9897C14.1892 20.5215 13.4001 20.033 12.6499 19.5282C12.8251 18.5893 13.5426 17.8331 14.5027 17.625C14.6239 17.5987 14.6037 17.6048 14.6544 17.5973ZM17.3829 19.5007C18.1386 18.8455 19.2594 18.7329 20.1302 19.2249C20.5659 19.4711 20.9206 19.8537 21.133 20.3068C20.033 20.8024 19.2044 21.7874 18.907 22.9579C18.1242 22.6105 17.3547 22.2401 16.6046 21.8535C16.3864 20.8727 16.7205 20.0751 17.3829 19.5007ZM21.8204 21.7009C22.7594 21.3075 23.8805 21.5698 24.5534 22.3358C25.2288 23.1047 25.3384 24.2365 24.8316 25.1259C23.3139 24.6831 21.8384 24.1412 20.3634 23.5757C20.4806 22.785 20.9896 22.088 21.7276 21.742C21.8919 21.6646 21.7891 21.7139 21.8204 21.7009ZM26.7479 25.3559C26.823 24.4315 27.4322 23.6091 28.3169 23.2879C29.2338 22.9548 30.2856 23.205 30.9349 23.9404C31.4983 24.5784 31.6224 25.8684 31.3612 26.4873C29.8556 26.3042 28.3066 26.0192 26.7417 25.6373C26.7209 25.0738 26.7404 25.4488 26.7479 25.3559ZM33.2418 25.8857C34.2466 26.21 35.3538 26.1314 36.2977 25.6507C36.3241 26.0052 36.3973 26.3569 36.5176 26.6947C35.3929 26.7543 34.2002 26.7368 32.9515 26.6433C33.0264 26.38 33.073 26.109 33.091 25.8338C33.5352 25.9966 33.1913 25.8694 33.2418 25.8857ZM38.6719 23.5027C39.5855 22.7247 40.9937 22.7567 41.8724 23.5703C42.3356 23.9992 42.6116 24.6051 42.6376 25.2353C41.4493 25.8765 39.9458 26.3177 38.155 26.5493C37.6053 25.5965 37.8018 24.2433 38.6719 23.5027ZM42.5962 22.1567C42.7959 21.8373 42.9458 21.492 43.0479 21.1335C43.8507 20.8312 44.7845 20.9751 45.4578 21.5038C45.3324 22.5677 44.8242 23.521 44.0428 24.2481C43.8056 23.4097 43.2984 22.6759 42.5962 22.1567ZM42.6724 18.0354C41.9011 16.7149 40.3846 15.9489 38.8629 16.0948C38.856 14.96 39.6684 13.9469 40.7833 13.7188C41.7086 13.5293 42.6785 13.912 43.227 14.6786C43.518 15.0851 43.6766 15.579 43.678 16.079C43.6779 16.8691 43.2919 17.5909 42.6724 18.0354ZM39.4677 12.4849C38.1539 11.3423 36.1973 11.203 34.7323 12.1433C34.6571 11.1937 35.1455 10.2605 35.9895 9.8095C36.7371 9.4101 37.6546 9.44289 38.3774 9.88208C38.772 10.1219 39.0949 10.4736 39.2952 10.8901C39.4278 11.1654 39.5927 11.952 39.4677 12.4849ZM32.1696 7.99278C31.0171 8.1154 29.9516 8.75537 29.2927 9.71128C28.8263 9.36177 28.2832 9.11607 27.7114 9.00185C27.738 8.61768 27.7091 8.22947 27.6258 7.85602C27.9348 7.05567 28.6687 6.46745 29.517 6.34018C30.2573 6.22921 31.0243 6.47787 31.5508 6.99677C31.849 7.29065 32.0964 7.762 32.1696 7.99278ZM23.1191 2.63665C24.1958 2.85655 25.019 3.84293 25.0283 4.97119C24.0758 4.65105 23.0264 4.70093 22.1099 5.11914C21.7295 4.52594 21.1983 4.0476 20.5695 3.73088C20.9395 3.13473 21.7475 2.35645 23.1191 2.63665ZM15.969 1.55066C17.0083 1.592 17.9504 2.31806 18.2168 3.34453C17.0141 3.5147 15.9666 4.22399 15.3609 5.2632C14.846 5.09241 14.2979 5.03226 13.7578 5.08028C13.3836 4.36727 13.3912 3.4802 13.7864 2.77729C14.0977 2.22357 14.6323 1.81019 15.24 1.63753C15.3784 1.59821 15.8684 1.54677 15.969 1.55066ZM9.45753 3.40576C10.0593 2.55537 11.1815 2.16918 12.2016 2.50953C11.8247 3.48005 11.8452 4.57319 12.2532 5.5277C12.1089 5.60479 11.9697 5.69197 11.8351 5.78708C11.0781 5.32707 10.1783 5.1311 9.29669 5.2374C9.21448 5.18876 9.1304 5.14353 9.04493 5.10095C8.94453 4.09375 9.35667 3.54827 9.45753 3.40576ZM41.4004 47.4952C39.9798 48.0193 38.4582 48.2666 36.9524 48.3749C33.6255 48.6144 30.2513 48.1751 27.0163 47.4086C23.7165 46.6267 20.4972 45.4707 17.4495 43.984C14.5213 42.5557 11.7012 40.8095 9.27462 38.6242C8.11139 37.5765 7.02727 36.4242 6.15543 35.12C5.2825 33.8143 4.62264 32.3558 4.61534 30.7616C4.61332 30.3336 4.61642 13.8992 4.61642 13.8992C5.89372 15.9444 7.65449 17.6724 9.52964 19.1697C11.4803 20.7274 13.6093 22.0563 15.8248 23.2026C17.1101 23.8677 18.4281 24.4648 19.7678 25.0117C19.7678 25.0117 20.1379 25.1593 20.294 25.2204C23.574 26.5044 26.9997 27.4531 30.4895 27.9417C33.9298 28.4233 37.577 28.5285 40.9481 27.5697C42.5776 27.1062 44.1912 26.3519 45.3784 25.1145V43.0335C45.3784 43.7573 45.1877 44.4751 44.7892 45.0792C44.7864 45.0834 44.7836 45.0877 44.7808 45.0919C44.2907 45.8287 42.7021 47.0149 41.4004 47.4952Z" fill="#383639"/>
</svg>
