<svg width="50" height="50" viewBox="0 0 50 50" fill="none" xmlns="http://www.w3.org/2000/svg">
<g clip-path="url(#clip0_47_1502)">
<path d="M49.9992 33.4889C49.9987 33.459 49.9965 33.429 49.991 33.3992L49.9893 33.3898L49.9892 33.3895L45.7557 10.5523C45.7089 10.2997 45.49 10.1165 45.2351 10.1165H4.76483C4.50985 10.1165 4.291 10.2997 4.24417 10.5523L0.0108051 33.3895C0.0108051 33.3895 0.0108051 33.3897 0.0106992 33.3898L0.00900424 33.3992C0.00349576 33.429 0.00127119 33.459 0.000847458 33.4889C0.000847458 33.4917 0 33.4944 0 33.4972V36.7001C0 36.995 0.237076 37.2339 0.529661 37.2339H7.09746V39.5826C7.09746 39.8775 7.33453 40.1165 7.62712 40.1165H15.3602C15.6528 40.1165 15.8898 39.8775 15.8898 39.5826V37.2339H34.1102V39.5826C34.1102 39.8775 34.3472 40.1165 34.6398 40.1165H42.3729C42.6655 40.1165 42.9025 39.8775 42.9025 39.5826V37.2339H49.4703C49.7629 37.2339 50 36.995 50 36.7001V33.4972C50 33.4945 49.9993 33.4918 49.9992 33.4889ZM5.20477 11.1841H44.7951L48.8325 32.9634H1.16748L5.20477 11.1841ZM14.8305 39.0488H8.15678V37.2339H14.8305V39.0488ZM41.8432 39.0488H35.1695V37.2339H41.8432V39.0488ZM48.9407 36.1663H1.05932V34.031H48.9407V36.1663Z" fill="#383639"/>
<path d="M31.3139 16.5657C31.2357 15.1643 30.0835 14.0665 28.6908 14.0665C27.2314 14.0665 25.8839 14.6829 24.9381 15.734C24.5499 14.7535 23.5993 14.0665 22.498 14.0665C21.0386 14.0665 19.6911 14.6829 18.7453 15.734C18.3571 14.7535 17.4065 14.0665 16.3052 14.0665C14.8461 14.0665 13.4985 14.6828 12.5528 15.7337C12.1645 14.7533 11.2141 14.0665 10.1126 14.0665C7.59871 14.0665 5.43854 15.9584 5.0878 18.4673L4.17191 25.0217C3.98642 26.349 4.38038 27.6906 5.25284 28.7024C6.12519 29.7141 7.38833 30.2944 8.71841 30.2944H11.3527C11.8657 30.2944 12.3616 30.0938 12.7359 29.7435C13.4001 30.1048 14.1432 30.2944 14.9111 30.2944H17.5456C18.0693 30.2944 18.56 30.0949 18.9312 29.7449C19.5948 30.1052 20.337 30.2944 21.1039 30.2944H23.7384C24.2622 30.2944 24.7528 30.0949 25.124 29.7449C25.7877 30.1052 26.5305 30.2944 27.3011 30.2944L28.6629 30.2829C29.5545 30.2753 30.3819 29.9104 30.9923 29.2555C31.6026 28.6006 31.9125 27.7459 31.8644 26.8487L31.3139 16.5657ZM25.9299 28.9491C25.8468 28.9139 25.7652 28.8754 25.6849 28.8338C25.7522 28.6082 25.7817 28.3713 25.7684 28.13L25.7198 27.2609L30.6627 24.2173L30.7532 25.9065L25.9299 28.9491ZM19.7285 28.9452C19.6484 28.9111 19.5697 28.8739 19.4921 28.8338C19.5594 28.6082 19.5889 28.3713 19.5756 28.1301L19.5266 27.2523L24.4874 24.1978L24.5818 25.884L19.7285 28.9452ZM13.5514 28.9522C13.465 28.9159 13.3804 28.8758 13.297 28.8325C13.3643 28.6065 13.3957 28.3693 13.3823 28.1303L13.3341 27.2683L18.2953 24.2135L18.3897 25.9001L13.5514 28.9522ZM6.05496 19.2023L11.4323 15.8639C11.5734 16.0857 11.6625 16.3448 11.6782 16.6254L11.7213 17.3968L5.79299 21.0767L6.05496 19.2023ZM17.6001 15.8263C17.7557 16.0562 17.8541 16.3292 17.8706 16.6261L17.9109 17.3456L12.9515 20.4239L12.859 18.7696L17.6001 15.8263ZM23.7852 15.8145C23.9454 16.0468 24.0466 16.3243 24.0634 16.6261L24.1028 17.3296L19.1437 20.4076L19.0513 18.7535L23.7852 15.8145ZM29.9824 15.8208C30.1399 16.0515 30.2395 16.326 30.2561 16.6244L30.2944 17.3394L25.337 20.4164L25.2445 18.7621L29.9824 15.8208ZM30.5979 23.0063L25.6521 26.0516L25.565 24.4956L30.5131 21.425L30.5979 23.0063ZM13.0193 21.6357L17.9788 18.5575L18.0715 20.2135L13.1118 23.2914L13.0193 21.6357ZM24.2633 20.1975L19.304 23.2751L19.2114 21.6195L24.1706 18.5413L24.2633 20.1975ZM13.1795 24.5031L18.1393 21.4252L18.2276 23.0042L13.2665 26.0589L13.1795 24.5031ZM19.3718 24.4869L24.3311 21.4093L24.4195 22.9884L19.4588 26.0429L19.3718 24.4869ZM30.4482 20.2115L25.4973 23.2839L25.4047 21.6283L30.3594 18.5531L30.4482 20.2115ZM5.60115 22.4496L11.789 18.6086L11.8815 20.2649L5.33896 24.3254L5.60115 22.4496ZM28.6909 15.1341C28.8015 15.1341 28.9092 15.1465 29.0134 15.1685L25.1767 17.5505L25.1603 17.2576C25.8634 15.9453 27.2029 15.1341 28.6909 15.1341ZM22.4981 15.1341C22.6049 15.1341 22.7092 15.1452 22.8102 15.166L18.9834 17.5417L18.9675 17.2576C19.6706 15.9453 21.0102 15.1341 22.4981 15.1341ZM16.3053 15.1341C16.4189 15.1341 16.5294 15.1475 16.6364 15.1707L12.7913 17.5577L12.7746 17.2578C13.4776 15.9454 14.8172 15.1341 16.3053 15.1341ZM10.1127 15.1341C10.2482 15.1341 10.3792 15.1531 10.5049 15.1859L6.3539 17.7629C6.93187 16.2176 8.42064 15.1341 10.1127 15.1341ZM5.18759 25.6733L11.9493 21.4768L12.0376 23.0555L5.4824 27.091C5.28949 26.6456 5.18833 26.1635 5.18759 25.6733ZM6.05252 28.0019C6.05051 27.9996 6.0486 27.9971 6.04659 27.9946L12.1052 24.2648L12.1996 25.9528L7.41079 28.9734C6.89352 28.7657 6.42636 28.4355 6.05252 28.0019ZM12.0603 28.9195C11.8745 29.1176 11.6233 29.2267 11.3528 29.2267H9.00591L12.2676 27.1694L12.3247 28.1904C12.3398 28.4626 12.246 28.7215 12.0603 28.9195ZM18.3699 28.7667C18.1898 29.0547 17.8817 29.2267 17.5457 29.2267H15.1128L18.4579 27.1166L18.518 28.1896C18.5292 28.3951 18.4783 28.5944 18.3699 28.7667ZM24.5627 28.7667C24.3826 29.0547 24.0745 29.2267 23.7385 29.2267H21.279L24.6498 27.1004L24.7108 28.1896C24.722 28.3952 24.671 28.5944 24.5627 28.7667ZM28.6541 29.2151L27.489 29.2251L30.8075 27.1318C30.7836 27.6516 30.5792 28.1394 30.2203 28.5244C29.8098 28.9647 29.2536 29.21 28.6541 29.2151Z" fill="#383639"/>
<path d="M47.0624 26.545L46.8246 24.7001C46.6747 23.5376 45.6846 22.6611 44.5215 22.6611H35.4044C34.2414 22.6611 33.2513 23.5376 33.1015 24.7001L32.8636 26.545C32.8508 26.6445 32.8081 29.2158 32.8117 29.3501C32.8293 30.0082 33.074 30.6452 33.5111 31.1464C34.0449 31.7585 34.8147 32.1095 35.6231 32.1095H44.3032C45.1117 32.1095 45.8814 31.7585 46.4153 31.1464C46.8639 30.6318 47.1099 29.9744 47.1155 29.2977C47.1163 29.1807 47.0752 26.6445 47.0624 26.545ZM46.012 26.6826C46.0844 27.2446 45.9131 27.811 45.542 28.2368C45.1709 28.6625 44.6356 28.9067 44.0734 28.9067H35.8526C35.2903 28.9067 34.7552 28.6625 34.384 28.2369C34.0129 27.8111 33.8416 27.2446 33.914 26.6826L34.0402 25.7028H45.8855L46.012 26.6826ZM35.4044 23.7287H44.5215C45.0844 23.7287 45.5719 24.1066 45.7301 24.6352H34.1959C34.354 24.1066 34.8415 23.7287 35.4044 23.7287ZM45.6194 30.4416C45.2867 30.8231 44.8069 31.0419 44.3031 31.0419H35.623C35.1192 31.0419 34.6395 30.8231 34.3067 30.4416C34.0128 30.1044 33.8589 29.6689 33.8713 29.2243C34.4169 29.7043 35.1197 29.9743 35.8527 29.9743H44.0735C44.8066 29.9743 45.5092 29.7043 46.055 29.2243C46.0673 29.6687 45.9134 30.1044 45.6194 30.4416Z" fill="#383639"/>
<path d="M38.6536 21.1133C40.8289 21.1133 42.2905 20.0217 42.2905 18.3971C42.2905 16.7923 39.5419 14.4229 38.9909 13.9643C38.7951 13.8015 38.512 13.8015 38.3164 13.9643C37.7653 14.423 35.0166 16.7923 35.0166 18.3971C35.0165 20.0217 36.4781 21.1133 38.6536 21.1133ZM38.6548 15.0761C39.2378 15.5853 39.7138 16.0675 40.093 16.5032C39.3656 16.7947 38.5856 16.5504 38.2404 16.4091C37.9554 16.2924 37.6289 16.4438 37.5351 16.7456C37.4508 17.0169 37.6074 17.3045 37.8695 17.4096C38.1849 17.536 38.7329 17.7097 39.3608 17.7097C39.8067 17.7097 40.293 17.622 40.7646 17.3675C41.0798 17.8366 41.2311 18.1965 41.2311 18.3971C41.2311 19.614 39.8425 20.0457 38.6535 20.0457C37.492 20.0457 36.1411 19.6334 36.0787 18.4804C36.4399 18.924 37.1507 19.4708 38.4803 19.5362C38.4891 19.5366 38.4977 19.5368 38.5064 19.5368C38.8086 19.5368 39.057 19.2792 39.0343 18.962C39.0151 18.6932 38.7875 18.4831 38.5204 18.4692C37.2975 18.4058 36.8847 17.841 36.7638 17.6006C36.7627 17.5982 36.7615 17.5959 36.7603 17.5935C36.6582 17.3864 36.6944 17.138 36.8379 16.9575C37.3476 16.3169 38.0357 15.624 38.6548 15.0761Z" fill="#383639"/>
</g>
<defs>
<clipPath id="clip0_47_1502">
<rect width="50" height="50" fill="white"/>
</clipPath>
</defs>
</svg>
