<svg width="50" height="50" viewBox="0 0 50 50" fill="none" xmlns="http://www.w3.org/2000/svg">
<g clip-path="url(#clip0_47_1492)">
<path d="M43.4581 20.7812C43.3704 20.9479 43.2049 21.0657 43.0187 21.0937C42.8124 21.1249 42.6315 21.0082 42.4264 21.0122C42.0674 21.0191 41.7467 21.2746 41.6563 21.6216C41.6084 21.8055 41.6382 21.9819 41.5231 22.147C41.4092 22.3104 41.2163 22.4078 41.017 22.4021C40.7847 22.3954 40.6235 22.2186 40.4018 22.1734C40.2124 22.1348 40.011 22.1665 39.8425 22.261C39.6773 22.3537 39.5665 22.4945 39.4875 22.6636C39.4046 22.8409 39.262 22.9756 39.067 23.0196C38.8756 23.0627 38.6691 23.0052 38.5265 22.871C38.456 22.8047 38.4088 22.7189 38.339 22.6514C38.2664 22.5811 38.181 22.5243 38.0879 22.4852C37.9009 22.4065 37.6867 22.401 37.4961 22.4704C37.2973 22.5427 37.1856 22.6789 37.0592 22.8383C36.814 23.148 36.3258 23.137 36.0997 22.8108C36.0422 22.7279 36.0142 22.6296 35.9579 22.5457C35.8997 22.4589 35.8247 22.3837 35.738 22.3253C35.5634 22.2075 35.3448 22.1618 35.1374 22.2001C35.0244 22.221 34.9166 22.2665 34.8224 22.3325C34.7253 22.4004 34.6629 22.4961 34.5755 22.5731C34.3932 22.7337 34.1689 22.743 33.9457 22.6793L33.907 22.6684C33.7483 22.6241 33.6129 22.5134 33.5375 22.3669C33.4615 22.2194 33.4186 22.0803 33.2936 21.962C33.0412 21.7229 32.6675 21.6777 32.3596 21.8329C32.0472 21.9906 31.6304 21.8878 31.4288 21.5918C31.3354 21.4548 31.3358 21.2888 31.2656 21.1422C31.2029 21.0109 31.1042 20.8975 30.9829 20.817C30.8367 20.7199 30.6576 20.6708 30.4823 20.6847C30.2628 20.7021 30.0675 20.6855 29.9045 20.5172L29.8676 20.4793C29.7155 20.3185 29.7013 20.1322 29.7176 19.9236C29.7312 19.7494 29.6806 19.5719 29.5844 19.4268C29.4821 19.2726 29.3447 19.2016 29.1937 19.1067C29.0366 19.008 28.9441 18.8468 28.9178 18.6658C28.8334 18.0838 28.9752 17.4906 29.2871 16.9959C29.9128 16.0039 31.0756 15.4605 32.1681 15.1602C33.7706 14.72 35.4949 14.7131 37.1295 14.9594C38.7269 15.2002 40.3389 15.6996 41.6942 16.5977C42.858 17.3689 44.0281 18.6529 43.6873 20.1638C43.6389 20.3785 43.5604 20.5862 43.4581 20.7812C43.3188 21.0463 43.5981 20.5147 43.4581 20.7812ZM30.8806 19.5192C31.5088 19.6283 32.0417 20.0291 32.3237 20.5899C33.0428 20.4384 33.8038 20.7035 34.2744 21.2672C34.4293 21.1764 34.596 21.1073 34.7701 21.0612L35.0802 19.2726L30.6052 17.27C30.3301 17.5304 30.1106 17.8679 30.0883 18.2551C30.503 18.5591 30.7884 19.0142 30.8806 19.5192ZM31.8616 16.5261L35.7662 18.2734L39.5779 16.8386C36.5296 15.7177 33.797 15.7872 31.8616 16.5261ZM41.0076 17.5747L36.2761 19.3558L35.9708 21.117C36.2346 21.2129 36.4753 21.3611 36.6764 21.5555C37.3236 21.1314 38.1825 21.1248 38.8377 21.5354C39.3026 21.0799 39.9777 20.8784 40.6168 21.0004C40.9538 20.2608 41.7264 19.7835 42.5392 19.8219C42.6584 19.0519 42.058 18.3738 41.4638 17.9019C41.3477 17.8096 41.0456 17.5996 41.0076 17.5747Z" fill="#383639"/>
<path d="M19.6015 14.5304C19.2439 14.5473 18.9367 14.802 18.8516 15.1493C18.8134 15.3049 18.8236 15.4663 18.8759 15.6173C18.9384 15.798 18.9556 15.9719 18.8646 16.1479C18.7818 16.308 18.6266 16.4243 18.4496 16.4585C18.2508 16.4968 18.0591 16.4154 17.8573 16.467C17.5133 16.5552 17.2665 16.8616 17.2469 17.2147C17.2368 17.3966 17.208 17.5561 17.0744 17.6918C16.9455 17.8227 16.7581 17.8878 16.5758 17.8652C16.3787 17.8406 16.2292 17.6963 16.0331 17.661C15.8446 17.6272 15.6466 17.6613 15.481 17.7575C15.3355 17.8421 15.2186 17.9723 15.1496 18.1257C15.0775 18.2865 15.0782 18.4575 14.9613 18.599C14.8533 18.7298 14.6905 18.8094 14.5209 18.8143C14.3118 18.8202 14.1799 18.7184 14.0281 18.5923C13.7102 18.3286 13.2234 18.3457 12.9314 18.6402C12.8581 18.7141 12.7996 18.8025 12.7594 18.8984C12.7216 18.9887 12.7036 19.0816 12.6495 19.165C12.5351 19.3416 12.357 19.4151 12.1559 19.4405L12.112 19.4461C11.9439 19.468 11.7698 19.4163 11.6416 19.3051C11.5176 19.1975 11.4211 19.0923 11.2614 19.0347C10.9433 18.92 10.591 19.0134 10.3691 19.2673C10.2567 19.3959 10.1397 19.4935 9.96474 19.5204C9.80746 19.5446 9.6094 19.5256 9.46582 19.4545C9.31403 19.3794 9.25118 19.2482 9.14124 19.1299C9.02939 19.0095 8.88033 18.9241 8.71995 18.8879C8.53237 18.8456 8.33467 18.8734 8.16546 18.9641C7.97812 19.0647 7.78912 19.1136 7.58342 19.0258L7.53763 19.0065C7.34302 18.9222 7.24823 18.7624 7.18657 18.5694C7.12969 18.3915 7.01069 18.237 6.85281 18.1371C6.67764 18.026 6.50199 18.0433 6.31263 17.9897C6.0906 17.9268 5.97159 17.7532 5.87202 17.5577C5.60122 17.0257 5.54708 16.4195 5.68445 15.842C5.98304 14.5874 7.01129 13.5962 8.03166 12.8829C9.49564 11.8595 11.233 11.2147 12.9821 10.89C13.9399 10.7122 14.9197 10.6325 15.893 10.6938C16.6784 10.7432 17.4711 10.8827 18.1991 11.19C18.7669 11.4295 19.3032 11.7811 19.6765 12.2789C19.8447 12.5031 19.9762 12.754 20.0619 13.021C20.1295 13.2317 20.1677 13.4512 20.1756 13.6724C20.1831 13.8805 20.1853 14.105 20.0592 14.2815C19.9534 14.4288 19.7825 14.5219 19.6015 14.5304C19.5031 14.535 19.9006 14.5164 19.6015 14.5304ZM6.87153 16.8718C7.372 16.9898 7.81238 17.2977 8.09415 17.727C8.70457 17.5857 9.3628 17.7446 9.84037 18.1502C10.4434 17.7297 11.2472 17.6773 11.9007 18.0134C12.4288 17.3033 13.3978 17.0261 14.2235 17.3438C14.2297 17.3345 14.2367 17.326 14.243 17.3168C13.9773 16.6911 13.8587 16.0405 13.8382 15.4043L7.05434 15.5725C6.61909 16.2742 6.86187 16.8449 6.87153 16.8718ZM8.07805 14.3541L13.905 14.2097C14.0303 13.2961 14.3013 12.4765 14.5389 11.8911C12.6721 12.0196 10.7757 12.5838 9.17415 13.5597C8.78851 13.7946 8.41873 14.0575 8.07805 14.3541ZM18.8627 13.2282C18.5035 12.4888 17.3753 11.9905 15.8426 11.8865C15.4734 12.6747 14.6431 14.7674 15.2335 16.5655C15.5472 16.457 15.883 16.428 16.2076 16.4802C16.458 15.8795 17.001 15.4308 17.637 15.2939C17.6558 14.5982 18.0456 13.9494 18.6392 13.6038C18.7368 13.5471 18.8398 13.4984 18.9476 13.4592C18.9456 13.451 18.8952 13.2951 18.8627 13.2282Z" fill="#383639"/>
<path d="M11.1176 7.81765C14.348 6.82016 17.6258 6.63176 20.347 7.28724C23.1783 7.96933 25.0891 9.48314 25.7269 11.5499C25.9187 12.171 25.9846 12.8277 25.9282 13.5C26.0405 13.4195 26.1544 13.34 26.2716 13.2624C28.4463 11.8227 31.2927 11.0299 34.2865 11.0299C35.1763 11.0299 36.0885 11.0985 36.9981 11.2343C40.7164 11.7886 44.1023 13.1087 46.5323 14.9509C48.7373 16.6227 49.9422 18.5614 50.0004 20.491C50.0088 20.7667 49.08 36.1117 49.08 36.1117C49.0864 36.3805 49.0701 36.6519 49.0299 36.9189C48.7009 39.1259 46.8768 40.9459 43.8935 42.0438C41.9987 42.7411 39.7703 43.0971 37.4009 43.0971C36.1916 43.0971 34.9455 43.0043 33.689 42.8169C29.8353 42.2421 26.701 41.2013 24.6252 39.8075C22.665 38.4912 21.6224 36.8521 21.5655 35.0244C20.217 35.8345 18.6971 36.5099 17.1076 37.0003C15.1701 37.5983 13.1103 37.9024 11.1286 37.9024C9.83742 37.9024 8.57891 37.7732 7.40995 37.5119C4.30756 36.8182 2.16914 35.2565 1.54274 33.2273C1.46703 32.9821 1.38618 32.4259 1.36328 32.2612C1.36185 32.2514 1.36078 32.2417 1.35994 32.232C1.35994 32.232 0.0619583 18.5506 0.0329819 18.3123C-0.480247 14.0786 5.16302 9.65533 11.1176 7.81765ZM24.5877 11.9015C24.0787 10.2531 22.4736 9.02607 20.0678 8.44654C17.5516 7.84066 14.498 8.02179 11.4695 8.95691C4.96102 10.9657 0.321438 15.4467 1.33812 18.742C1.8349 20.3517 3.6529 21.6176 6.32614 22.2153C9.09226 22.8337 12.4039 22.6558 15.4116 21.7276C18.4684 20.783 21.1888 19.1326 22.8976 17.1918C23.2192 16.3668 23.7217 15.5795 24.3857 14.8566C24.8022 13.8129 24.871 12.8193 24.5877 11.9015ZM45.8118 15.9011C43.5387 14.1777 40.346 12.9391 36.8222 12.4137C35.9705 12.2868 35.1175 12.2224 34.2863 12.2224C28.2883 12.2224 24.2119 15.4944 23.7249 18.6644L23.68 19.4251C23.7277 20.8671 24.5741 22.1514 26.2104 23.2501C28.1404 24.546 31.1057 25.5211 34.7856 26.0699C35.969 26.2462 37.1547 26.3358 38.3097 26.3358C44.016 26.3358 48.3176 24.2137 48.7708 21.1755C49.0328 19.4195 47.982 17.5464 45.8118 15.9011ZM25.29 38.8175C27.2199 40.1135 30.185 41.0885 33.8648 41.6374C37.3893 42.1628 40.8045 41.9099 43.4817 40.9246C46.0268 39.988 47.5756 38.5112 47.8469 36.7636L48.5957 24.0991C47.9678 24.7874 47.1389 25.398 46.1179 25.9126C44.0506 26.9544 41.2777 27.5282 38.3099 27.5282C37.0962 27.5282 35.8514 27.4344 34.6101 27.2492C30.7562 26.6746 27.6219 25.6339 25.5458 24.2399C24.6895 23.6651 24.0084 23.0285 23.5078 22.3417L22.8013 34.2505C22.5408 35.9971 23.3783 37.5337 25.29 38.8175ZM2.68213 32.8754C3.74389 36.3149 10.5839 37.7658 16.7558 35.8609C18.5377 35.3111 20.2231 34.5173 21.6499 33.5586C21.6499 33.5586 22.483 19.3235 22.4833 19.269C20.698 20.8082 18.3762 22.0597 15.7634 22.8668C13.8253 23.465 11.7653 23.7692 9.78328 23.7692C8.49246 23.7692 7.23442 23.64 6.06594 23.3789C4.16291 22.9535 2.62346 22.201 1.57232 21.2145L2.54631 32.1108C2.58721 32.4008 2.64981 32.7708 2.68213 32.8754Z" fill="#383639"/>
</g>
<defs>
<clipPath id="clip0_47_1492">
<rect width="50" height="50" fill="white" transform="matrix(-1 0 0 1 50 0)"/>
</clipPath>
</defs>
</svg>
