<svg width="4644" height="1147" viewBox="0 0 4644 1147" fill="none" xmlns="http://www.w3.org/2000/svg">
<rect x="4" width="4636" height="1120" fill="#EF5E3C"/>
<path d="M1587 94.5L1678.68 46.5467C1715.74 27.1672 1760.5 30.0614 1794.75 54.0506V54.0506C1830.04 78.7685 1876.39 81.0325 1913.92 59.8718L1928.21 51.81C1968.93 28.8543 2018.5 28.0736 2059.91 49.7355L2071.79 55.9483C2118.08 80.158 2173.18 80.6608 2219.9 57.2998L2233.87 50.3157C2277.89 28.3041 2330.08 30.1791 2372.42 55.293V55.293C2413.74 79.8099 2464.54 82.215 2507.99 61.7122L2528.98 51.8109C2578.52 28.4372 2635.78 27.7822 2685.84 50.0165L2707.88 59.8041C2757.78 81.9651 2814.56 82.7641 2865.07 62.0157L2900.26 47.556C2950.86 26.7655 3007.77 27.6116 3057.74 49.8972L3188 108" stroke="#F9BF5A" stroke-width="15"/>
<path d="M1578 186.5L1669.68 138.547C1706.74 119.167 1751.5 122.061 1785.75 146.051V146.051C1821.04 170.768 1867.39 173.032 1904.92 151.872L1919.21 143.81C1959.93 120.854 2009.5 120.074 2050.91 141.736L2062.79 147.948C2109.08 172.158 2164.18 172.661 2210.9 149.3L2224.87 142.316C2268.89 120.304 2321.08 122.179 2363.42 147.293V147.293C2404.74 171.81 2455.54 174.215 2498.99 153.712L2519.98 143.811C2569.52 120.437 2626.78 119.782 2676.84 142.017L2698.88 151.804C2748.78 173.965 2805.56 174.764 2856.07 154.016L2891.26 139.556C2941.86 118.765 2998.77 119.612 3048.74 141.897L3179 200" stroke="#F9BF5A" stroke-width="15"/>
<path d="M1569 278.5L1660.68 230.547C1697.74 211.167 1742.5 214.061 1776.75 238.051V238.051C1812.04 262.768 1858.39 265.032 1895.92 243.872L1910.21 235.81C1950.93 212.854 2000.5 212.074 2041.91 233.736L2053.79 239.948C2100.08 264.158 2155.18 264.661 2201.9 241.3L2215.87 234.316C2259.89 212.304 2312.08 214.179 2354.42 239.293V239.293C2395.74 263.81 2446.54 266.215 2489.99 245.712L2510.98 235.811C2560.52 212.437 2617.78 211.782 2667.84 234.017L2689.88 243.804C2739.78 265.965 2796.56 266.764 2847.07 246.016L2882.26 231.556C2932.86 210.765 2989.77 211.612 3039.74 233.897L3170 292" stroke="#F9BF5A" stroke-width="15"/>
<path d="M1560 370.5L1651.68 322.547C1688.74 303.167 1733.5 306.061 1767.75 330.051V330.051C1803.04 354.768 1849.39 357.032 1886.92 335.872L1901.21 327.81C1941.93 304.854 1991.5 304.074 2032.91 325.736L2044.79 331.948C2091.08 356.158 2146.18 356.661 2192.9 333.3L2206.87 326.316C2250.89 304.304 2303.08 306.179 2345.42 331.293V331.293C2386.74 355.81 2437.54 358.215 2480.99 337.712L2501.98 327.811C2551.52 304.437 2608.78 303.782 2658.84 326.017L2680.88 335.804C2730.78 357.965 2787.56 358.764 2838.07 338.016L2873.26 323.556C2923.86 302.765 2980.77 303.612 3030.74 325.897L3161 384" stroke="#F9BF5A" stroke-width="15"/>
<path d="M1551 462.5L1642.68 414.547C1679.74 395.167 1724.5 398.061 1758.75 422.051V422.051C1794.04 446.768 1840.39 449.032 1877.92 427.872L1892.21 419.81C1932.93 396.854 1982.5 396.074 2023.91 417.736L2035.79 423.948C2082.08 448.158 2137.18 448.661 2183.9 425.3L2197.87 418.316C2241.89 396.304 2294.08 398.179 2336.42 423.293V423.293C2377.74 447.81 2428.54 450.215 2471.99 429.712L2492.98 419.811C2542.52 396.437 2599.78 395.782 2649.84 418.017L2671.88 427.804C2721.78 449.965 2778.56 450.764 2829.07 430.016L2864.26 415.556C2914.86 394.765 2971.77 395.612 3021.74 417.897L3152 476" stroke="#F9BF5A" stroke-width="15"/>
<path d="M1542 554.5L1633.68 506.547C1670.74 487.167 1715.5 490.061 1749.75 514.051V514.051C1785.04 538.768 1831.39 541.032 1868.92 519.872L1883.21 511.81C1923.93 488.854 1973.5 488.074 2014.91 509.736L2026.79 515.948C2073.08 540.158 2128.18 540.661 2174.9 517.3L2188.87 510.316C2232.89 488.304 2285.08 490.179 2327.42 515.293V515.293C2368.74 539.81 2419.54 542.215 2462.99 521.712L2483.98 511.811C2533.52 488.437 2590.78 487.782 2640.84 510.017L2662.88 519.804C2712.78 541.965 2769.56 542.764 2820.07 522.016L2855.26 507.556C2905.86 486.765 2962.77 487.612 3012.74 509.897L3143 568" stroke="#F9BF5A" stroke-width="15"/>
<path d="M1533 646.5L1624.68 598.547C1661.74 579.167 1706.5 582.061 1740.75 606.051V606.051C1776.04 630.768 1822.39 633.032 1859.92 611.872L1874.21 603.81C1914.93 580.854 1964.5 580.074 2005.91 601.736L2017.79 607.948C2064.08 632.158 2119.18 632.661 2165.9 609.3L2179.87 602.316C2223.89 580.304 2276.08 582.179 2318.42 607.293V607.293C2359.74 631.81 2410.54 634.215 2453.99 613.712L2474.98 603.811C2524.52 580.437 2581.78 579.782 2631.84 602.017L2653.88 611.804C2703.78 633.965 2760.56 634.764 2811.07 614.016L2846.26 599.556C2896.86 578.765 2953.77 579.612 3003.74 601.897L3134 660" stroke="#F9BF5A" stroke-width="15"/>
<path d="M1524 738.5L1615.68 690.547C1652.74 671.167 1697.5 674.061 1731.75 698.051V698.051C1767.04 722.768 1813.39 725.032 1850.92 703.872L1865.21 695.81C1905.93 672.854 1955.5 672.074 1996.91 693.736L2008.79 699.948C2055.08 724.158 2110.18 724.661 2156.9 701.3L2170.87 694.316C2214.89 672.304 2267.08 674.179 2309.42 699.293V699.293C2350.74 723.81 2401.54 726.215 2444.99 705.712L2465.98 695.811C2515.52 672.437 2572.78 671.782 2622.84 694.017L2644.88 703.804C2694.78 725.965 2751.56 726.764 2802.07 706.016L2837.26 691.556C2887.86 670.765 2944.77 671.612 2994.74 693.897L3125 752" stroke="#F9BF5A" stroke-width="15"/>
<path d="M1515 830.5L1606.68 782.547C1643.74 763.167 1688.5 766.061 1722.75 790.051V790.051C1758.04 814.768 1804.39 817.032 1841.92 795.872L1856.21 787.81C1896.93 764.854 1946.5 764.074 1987.91 785.736L1999.79 791.948C2046.08 816.158 2101.18 816.661 2147.9 793.3L2161.87 786.316C2205.89 764.304 2258.08 766.179 2300.42 791.293V791.293C2341.74 815.81 2392.54 818.215 2435.99 797.712L2456.98 787.811C2506.52 764.437 2563.78 763.782 2613.84 786.017L2635.88 795.804C2685.78 817.965 2742.56 818.764 2793.07 798.016L2828.26 783.556C2878.86 762.765 2935.77 763.612 2985.74 785.897L3116 844" stroke="#F9BF5A" stroke-width="15"/>
<path d="M1506 922.5L1597.68 874.547C1634.74 855.167 1679.5 858.061 1713.75 882.051V882.051C1749.04 906.768 1795.39 909.032 1832.92 887.872L1847.21 879.81C1887.93 856.854 1937.5 856.074 1978.91 877.736L1990.79 883.948C2037.08 908.158 2092.18 908.661 2138.9 885.3L2152.87 878.316C2196.89 856.304 2249.08 858.179 2291.42 883.293V883.293C2332.74 907.81 2383.54 910.215 2426.99 889.712L2447.98 879.811C2497.52 856.437 2554.78 855.782 2604.84 878.017L2626.88 887.804C2676.78 909.965 2733.56 910.764 2784.07 890.016L2819.26 875.556C2869.86 854.765 2926.77 855.612 2976.74 877.897L3107 936" stroke="#F9BF5A" stroke-width="15"/>
<path d="M1506 1014.5L1597.68 966.547C1634.74 947.167 1679.5 950.061 1713.75 974.051V974.051C1749.04 998.768 1795.39 1001.03 1832.92 979.872L1847.21 971.81C1887.93 948.854 1937.5 948.074 1978.91 969.736L1990.79 975.948C2037.08 1000.16 2092.18 1000.66 2138.9 977.3L2152.87 970.316C2196.89 948.304 2249.08 950.179 2291.42 975.293V975.293C2332.74 999.81 2383.54 1002.22 2426.99 981.712L2447.98 971.811C2497.52 948.437 2554.78 947.782 2604.84 970.017L2626.88 979.804C2676.78 1001.97 2733.56 1002.76 2784.07 982.016L2819.26 967.556C2869.86 946.765 2926.77 947.612 2976.74 969.897L3107 1028" stroke="#F9BF5A" stroke-width="15"/>
<path d="M1504 1106.5L1595.68 1058.55C1632.74 1039.17 1677.5 1042.06 1711.75 1066.05V1066.05C1747.04 1090.77 1793.39 1093.03 1830.92 1071.87L1845.21 1063.81C1885.93 1040.85 1935.5 1040.07 1976.91 1061.74L1988.79 1067.95C2035.08 1092.16 2090.18 1092.66 2136.9 1069.3L2150.87 1062.32C2194.89 1040.3 2247.08 1042.18 2289.42 1067.29V1067.29C2330.74 1091.81 2381.54 1094.22 2424.99 1073.71L2445.98 1063.81C2495.52 1040.44 2552.78 1039.78 2602.84 1062.02L2624.88 1071.8C2674.78 1093.97 2731.56 1094.76 2782.07 1074.02L2817.26 1059.56C2867.86 1038.77 2924.77 1039.61 2974.74 1061.9L3105 1120" stroke="#F9BF5A" stroke-width="15"/>
<path d="M1688 42.5L1596.32 90.4533C1559.26 109.833 1514.5 106.939 1480.25 82.9494V82.9494C1444.96 58.2315 1398.61 55.9675 1361.08 77.1282L1346.79 85.19C1306.07 108.146 1256.5 108.926 1215.09 87.2645L1203.21 81.0517C1156.92 56.842 1101.82 56.3392 1055.1 79.7002L1041.13 86.6843C997.108 108.696 944.915 106.821 902.585 81.707V81.707C861.261 57.1901 810.462 54.785 767.006 75.2878L746.021 85.1891C696.48 108.563 639.22 109.218 589.158 86.9835L567.12 77.1959C517.223 55.0349 460.435 54.2359 409.934 74.9843L374.74 89.444C324.137 110.235 267.226 109.388 217.263 87.1028L87 29" stroke="#F9BF5A" stroke-width="15"/>
<path d="M1679 134.5L1587.32 182.453C1550.26 201.833 1505.5 198.939 1471.25 174.949V174.949C1435.96 150.232 1389.61 147.968 1352.08 169.128L1337.79 177.19C1297.07 200.146 1247.5 200.926 1206.09 179.264L1194.21 173.052C1147.92 148.842 1092.82 148.339 1046.1 171.7L1032.13 178.684C988.108 200.696 935.915 198.821 893.585 173.707V173.707C852.261 149.19 801.462 146.785 758.006 167.288L737.021 177.189C687.48 200.563 630.22 201.218 580.158 178.983L558.12 169.196C508.223 147.035 451.435 146.236 400.934 166.984L365.74 181.444C315.137 202.235 258.226 201.388 208.263 179.103L78 121" stroke="#F9BF5A" stroke-width="15"/>
<path d="M1670 226.5L1578.32 274.453C1541.26 293.833 1496.5 290.939 1462.25 266.949V266.949C1426.96 242.232 1380.61 239.968 1343.08 261.128L1328.79 269.19C1288.07 292.146 1238.5 292.926 1197.09 271.264L1185.21 265.052C1138.92 240.842 1083.82 240.339 1037.1 263.7L1023.13 270.684C979.108 292.696 926.915 290.821 884.585 265.707V265.707C843.261 241.19 792.462 238.785 749.006 259.288L728.021 269.189C678.48 292.563 621.22 293.218 571.158 270.983L549.12 261.196C499.223 239.035 442.435 238.236 391.934 258.984L356.74 273.444C306.137 294.235 249.226 293.388 199.263 271.103L69 213" stroke="#F9BF5A" stroke-width="15"/>
<path d="M1661 318.5L1569.32 366.453C1532.26 385.833 1487.5 382.939 1453.25 358.949V358.949C1417.96 334.232 1371.61 331.968 1334.08 353.128L1319.79 361.19C1279.07 384.146 1229.5 384.926 1188.09 363.264L1176.21 357.052C1129.92 332.842 1074.82 332.339 1028.1 355.7L1014.13 362.684C970.108 384.696 917.915 382.821 875.585 357.707V357.707C834.261 333.19 783.462 330.785 740.006 351.288L719.021 361.189C669.48 384.563 612.22 385.218 562.158 362.983L540.12 353.196C490.223 331.035 433.435 330.236 382.934 350.984L347.74 365.444C297.137 386.235 240.226 385.388 190.263 363.103L60 305" stroke="#F9BF5A" stroke-width="15"/>
<path d="M1652 410.5L1560.32 458.453C1523.26 477.833 1478.5 474.939 1444.25 450.949V450.949C1408.96 426.232 1362.61 423.968 1325.08 445.128L1310.79 453.19C1270.07 476.146 1220.5 476.926 1179.09 455.264L1167.21 449.052C1120.92 424.842 1065.82 424.339 1019.1 447.7L1005.13 454.684C961.108 476.696 908.915 474.821 866.585 449.707V449.707C825.261 425.19 774.462 422.785 731.006 443.288L710.021 453.189C660.48 476.563 603.22 477.218 553.158 454.983L531.12 445.196C481.223 423.035 424.435 422.236 373.934 442.984L338.74 457.444C288.137 478.235 231.226 477.388 181.263 455.103L51 397" stroke="#F9BF5A" stroke-width="15"/>
<path d="M1643 502.5L1551.32 550.453C1514.26 569.833 1469.5 566.939 1435.25 542.949V542.949C1399.96 518.232 1353.61 515.968 1316.08 537.128L1301.79 545.19C1261.07 568.146 1211.5 568.926 1170.09 547.264L1158.21 541.052C1111.92 516.842 1056.82 516.339 1010.1 539.7L996.131 546.684C952.108 568.696 899.915 566.821 857.585 541.707V541.707C816.261 517.19 765.462 514.785 722.006 535.288L701.021 545.189C651.48 568.563 594.22 569.218 544.158 546.983L522.12 537.196C472.223 515.035 415.435 514.236 364.934 534.984L329.74 549.444C279.137 570.235 222.226 569.388 172.263 547.103L42 489" stroke="#F9BF5A" stroke-width="15"/>
<path d="M1634 594.5L1542.32 642.453C1505.26 661.833 1460.5 658.939 1426.25 634.949V634.949C1390.96 610.232 1344.61 607.968 1307.08 629.128L1292.79 637.19C1252.07 660.146 1202.5 660.926 1161.09 639.264L1149.21 633.052C1102.92 608.842 1047.82 608.339 1001.1 631.7L987.131 638.684C943.108 660.696 890.915 658.821 848.585 633.707V633.707C807.261 609.19 756.462 606.785 713.006 627.288L692.021 637.189C642.48 660.563 585.22 661.218 535.158 638.983L513.12 629.196C463.223 607.035 406.435 606.236 355.934 626.984L320.74 641.444C270.137 662.235 213.226 661.388 163.263 639.103L33 581" stroke="#F9BF5A" stroke-width="15"/>
<path d="M1625 686.5L1533.32 734.453C1496.26 753.833 1451.5 750.939 1417.25 726.949V726.949C1381.96 702.232 1335.61 699.968 1298.08 721.128L1283.79 729.19C1243.07 752.146 1193.5 752.926 1152.09 731.264L1140.21 725.052C1093.92 700.842 1038.82 700.339 992.1 723.7L978.131 730.684C934.108 752.696 881.915 750.821 839.585 725.707V725.707C798.261 701.19 747.462 698.785 704.006 719.288L683.021 729.189C633.48 752.563 576.22 753.218 526.158 730.983L504.12 721.196C454.223 699.035 397.435 698.236 346.934 718.984L311.74 733.444C261.137 754.235 204.226 753.388 154.263 731.103L24 673" stroke="#F9BF5A" stroke-width="15"/>
<path d="M1616 778.5L1524.32 826.453C1487.26 845.833 1442.5 842.939 1408.25 818.949V818.949C1372.96 794.232 1326.61 791.968 1289.08 813.128L1274.79 821.19C1234.07 844.146 1184.5 844.926 1143.09 823.264L1131.21 817.052C1084.92 792.842 1029.82 792.339 983.1 815.7L969.131 822.684C925.108 844.696 872.915 842.821 830.585 817.707V817.707C789.261 793.19 738.462 790.785 695.006 811.288L674.021 821.189C624.48 844.563 567.22 845.218 517.158 822.983L495.12 813.196C445.223 791.035 388.435 790.236 337.934 810.984L302.74 825.444C252.137 846.235 195.226 845.388 145.263 823.103L15 765" stroke="#F9BF5A" stroke-width="15"/>
<path d="M1607 870.5L1515.32 918.453C1478.26 937.833 1433.5 934.939 1399.25 910.949V910.949C1363.96 886.232 1317.61 883.968 1280.08 905.128L1265.79 913.19C1225.07 936.146 1175.5 936.926 1134.09 915.264L1122.21 909.052C1075.92 884.842 1020.82 884.339 974.1 907.7L960.131 914.684C916.108 936.696 863.915 934.821 821.585 909.707V909.707C780.261 885.19 729.462 882.785 686.006 903.288L665.021 913.189C615.48 936.563 558.22 937.218 508.158 914.983L486.12 905.196C436.223 883.035 379.435 882.236 328.934 902.984L293.74 917.444C243.137 938.235 186.226 937.388 136.263 915.103L6 857" stroke="#F9BF5A" stroke-width="15"/>
<path d="M1607 962.5L1515.32 1010.45C1478.26 1029.83 1433.5 1026.94 1399.25 1002.95V1002.95C1363.96 978.232 1317.61 975.968 1280.08 997.128L1265.79 1005.19C1225.07 1028.15 1175.5 1028.93 1134.09 1007.26L1122.21 1001.05C1075.92 976.842 1020.82 976.339 974.1 999.7L960.131 1006.68C916.108 1028.7 863.915 1026.82 821.585 1001.71V1001.71C780.261 977.19 729.462 974.785 686.006 995.288L665.021 1005.19C615.48 1028.56 558.22 1029.22 508.158 1006.98L486.12 997.196C436.223 975.035 379.435 974.236 328.934 994.984L293.74 1009.44C243.137 1030.23 186.226 1029.39 136.263 1007.1L6 949" stroke="#F9BF5A" stroke-width="15"/>
<path d="M1605 1054.5L1513.32 1102.45C1476.26 1121.83 1431.5 1118.94 1397.25 1094.95V1094.95C1361.96 1070.23 1315.61 1067.97 1278.08 1089.13L1263.79 1097.19C1223.07 1120.15 1173.5 1120.93 1132.09 1099.26L1120.21 1093.05C1073.92 1068.84 1018.82 1068.34 972.1 1091.7L958.131 1098.68C914.108 1120.7 861.915 1118.82 819.585 1093.71V1093.71C778.261 1069.19 727.462 1066.78 684.006 1087.29L663.021 1097.19C613.48 1120.56 556.22 1121.22 506.158 1098.98L484.12 1089.2C434.223 1067.03 377.435 1066.24 326.934 1086.98L291.74 1101.44C241.137 1122.23 184.226 1121.39 134.263 1099.1L4 1041" stroke="#F9BF5A" stroke-width="15"/>
<path d="M4640 55.5L4548.32 103.453C4511.26 122.833 4466.5 119.939 4432.25 95.9494V95.9494C4396.96 71.2315 4350.61 68.9675 4313.08 90.1282L4298.79 98.19C4258.07 121.146 4208.5 121.926 4167.09 100.264L4155.21 94.0517C4108.92 69.842 4053.82 69.3392 4007.1 92.7002L3993.13 99.6843C3949.11 121.696 3896.92 119.821 3854.58 94.707V94.707C3813.26 70.1901 3762.46 67.785 3719.01 88.2878L3698.02 98.1891C3648.48 121.563 3591.22 122.218 3541.16 99.9835L3519.12 90.1959C3469.22 68.0349 3412.44 67.2359 3361.93 87.9843L3326.74 102.444C3276.14 123.235 3219.23 122.388 3169.26 100.103L3039 42" stroke="#F9BF5A" stroke-width="15"/>
<path d="M4631 147.5L4539.32 195.453C4502.26 214.833 4457.5 211.939 4423.25 187.949V187.949C4387.96 163.232 4341.61 160.968 4304.08 182.128L4289.79 190.19C4249.07 213.146 4199.5 213.926 4158.09 192.264L4146.21 186.052C4099.92 161.842 4044.82 161.339 3998.1 184.7L3984.13 191.684C3940.11 213.696 3887.92 211.821 3845.58 186.707V186.707C3804.26 162.19 3753.46 159.785 3710.01 180.288L3689.02 190.189C3639.48 213.563 3582.22 214.218 3532.16 191.983L3510.12 182.196C3460.22 160.035 3403.44 159.236 3352.93 179.984L3317.74 194.444C3267.14 215.235 3210.23 214.388 3160.26 192.103L3030 134" stroke="#F9BF5A" stroke-width="15"/>
<path d="M4622 239.5L4530.32 287.453C4493.26 306.833 4448.5 303.939 4414.25 279.949V279.949C4378.96 255.232 4332.61 252.968 4295.08 274.128L4280.79 282.19C4240.07 305.146 4190.5 305.926 4149.09 284.264L4137.21 278.052C4090.92 253.842 4035.82 253.339 3989.1 276.7L3975.13 283.684C3931.11 305.696 3878.92 303.821 3836.58 278.707V278.707C3795.26 254.19 3744.46 251.785 3701.01 272.288L3680.02 282.189C3630.48 305.563 3573.22 306.218 3523.16 283.983L3501.12 274.196C3451.22 252.035 3394.44 251.236 3343.93 271.984L3308.74 286.444C3258.14 307.235 3201.23 306.388 3151.26 284.103L3021 226" stroke="#F9BF5A" stroke-width="15"/>
<path d="M4613 331.5L4521.32 379.453C4484.26 398.833 4439.5 395.939 4405.25 371.949V371.949C4369.96 347.232 4323.61 344.968 4286.08 366.128L4271.79 374.19C4231.07 397.146 4181.5 397.926 4140.09 376.264L4128.21 370.052C4081.92 345.842 4026.82 345.339 3980.1 368.7L3966.13 375.684C3922.11 397.696 3869.92 395.821 3827.58 370.707V370.707C3786.26 346.19 3735.46 343.785 3692.01 364.288L3671.02 374.189C3621.48 397.563 3564.22 398.218 3514.16 375.983L3492.12 366.196C3442.22 344.035 3385.44 343.236 3334.93 363.984L3299.74 378.444C3249.14 399.235 3192.23 398.388 3142.26 376.103L3012 318" stroke="#F9BF5A" stroke-width="15"/>
<path d="M4604 423.5L4512.32 471.453C4475.26 490.833 4430.5 487.939 4396.25 463.949V463.949C4360.96 439.232 4314.61 436.968 4277.08 458.128L4262.79 466.19C4222.07 489.146 4172.5 489.926 4131.09 468.264L4119.21 462.052C4072.92 437.842 4017.82 437.339 3971.1 460.7L3957.13 467.684C3913.11 489.696 3860.92 487.821 3818.58 462.707V462.707C3777.26 438.19 3726.46 435.785 3683.01 456.288L3662.02 466.189C3612.48 489.563 3555.22 490.218 3505.16 467.983L3483.12 458.196C3433.22 436.035 3376.44 435.236 3325.93 455.984L3290.74 470.444C3240.14 491.235 3183.23 490.388 3133.26 468.103L3003 410" stroke="#F9BF5A" stroke-width="15"/>
<path d="M4595 515.5L4503.32 563.453C4466.26 582.833 4421.5 579.939 4387.25 555.949V555.949C4351.96 531.232 4305.61 528.968 4268.08 550.128L4253.79 558.19C4213.07 581.146 4163.5 581.926 4122.09 560.264L4110.21 554.052C4063.92 529.842 4008.82 529.339 3962.1 552.7L3948.13 559.684C3904.11 581.696 3851.92 579.821 3809.58 554.707V554.707C3768.26 530.19 3717.46 527.785 3674.01 548.288L3653.02 558.189C3603.48 581.563 3546.22 582.218 3496.16 559.983L3474.12 550.196C3424.22 528.035 3367.44 527.236 3316.93 547.984L3281.74 562.444C3231.14 583.235 3174.23 582.388 3124.26 560.103L2994 502" stroke="#F9BF5A" stroke-width="15"/>
<path d="M4586 607.5L4494.32 655.453C4457.26 674.833 4412.5 671.939 4378.25 647.949V647.949C4342.96 623.232 4296.61 620.968 4259.08 642.128L4244.79 650.19C4204.07 673.146 4154.5 673.926 4113.09 652.264L4101.21 646.052C4054.92 621.842 3999.82 621.339 3953.1 644.7L3939.13 651.684C3895.11 673.696 3842.92 671.821 3800.58 646.707V646.707C3759.26 622.19 3708.46 619.785 3665.01 640.288L3644.02 650.189C3594.48 673.563 3537.22 674.218 3487.16 651.983L3465.12 642.196C3415.22 620.035 3358.44 619.236 3307.93 639.984L3272.74 654.444C3222.14 675.235 3165.23 674.388 3115.26 652.103L2985 594" stroke="#F9BF5A" stroke-width="15"/>
<path d="M4577 699.5L4485.32 747.453C4448.26 766.833 4403.5 763.939 4369.25 739.949V739.949C4333.96 715.232 4287.61 712.968 4250.08 734.128L4235.79 742.19C4195.07 765.146 4145.5 765.926 4104.09 744.264L4092.21 738.052C4045.92 713.842 3990.82 713.339 3944.1 736.7L3930.13 743.684C3886.11 765.696 3833.92 763.821 3791.58 738.707V738.707C3750.26 714.19 3699.46 711.785 3656.01 732.288L3635.02 742.189C3585.48 765.563 3528.22 766.218 3478.16 743.983L3456.12 734.196C3406.22 712.035 3349.44 711.236 3298.93 731.984L3263.74 746.444C3213.14 767.235 3156.23 766.388 3106.26 744.103L2976 686" stroke="#F9BF5A" stroke-width="15"/>
<path d="M4568 791.5L4476.32 839.453C4439.26 858.833 4394.5 855.939 4360.25 831.949V831.949C4324.96 807.232 4278.61 804.968 4241.08 826.128L4226.79 834.19C4186.07 857.146 4136.5 857.926 4095.09 836.264L4083.21 830.052C4036.92 805.842 3981.82 805.339 3935.1 828.7L3921.13 835.684C3877.11 857.696 3824.92 855.821 3782.58 830.707V830.707C3741.26 806.19 3690.46 803.785 3647.01 824.288L3626.02 834.189C3576.48 857.563 3519.22 858.218 3469.16 835.983L3447.12 826.196C3397.22 804.035 3340.44 803.236 3289.93 823.984L3254.74 838.444C3204.14 859.235 3147.23 858.388 3097.26 836.103L2967 778" stroke="#F9BF5A" stroke-width="15"/>
<path d="M4559 883.5L4467.32 931.453C4430.26 950.833 4385.5 947.939 4351.25 923.949V923.949C4315.96 899.232 4269.61 896.968 4232.08 918.128L4217.79 926.19C4177.07 949.146 4127.5 949.926 4086.09 928.264L4074.21 922.052C4027.92 897.842 3972.82 897.339 3926.1 920.7L3912.13 927.684C3868.11 949.696 3815.92 947.821 3773.58 922.707V922.707C3732.26 898.19 3681.46 895.785 3638.01 916.288L3617.02 926.189C3567.48 949.563 3510.22 950.218 3460.16 927.983L3438.12 918.196C3388.22 896.035 3331.44 895.236 3280.93 915.984L3245.74 930.444C3195.14 951.235 3138.23 950.388 3088.26 928.103L2958 870" stroke="#F9BF5A" stroke-width="15"/>
<path d="M4559 975.5L4467.32 1023.45C4430.26 1042.83 4385.5 1039.94 4351.25 1015.95V1015.95C4315.96 991.232 4269.61 988.968 4232.08 1010.13L4217.79 1018.19C4177.07 1041.15 4127.5 1041.93 4086.09 1020.26L4074.21 1014.05C4027.92 989.842 3972.82 989.339 3926.1 1012.7L3912.13 1019.68C3868.11 1041.7 3815.92 1039.82 3773.58 1014.71V1014.71C3732.26 990.19 3681.46 987.785 3638.01 1008.29L3617.02 1018.19C3567.48 1041.56 3510.22 1042.22 3460.16 1019.98L3438.12 1010.2C3388.22 988.035 3331.44 987.236 3280.93 1007.98L3245.74 1022.44C3195.14 1043.23 3138.23 1042.39 3088.26 1020.1L2958 962" stroke="#F9BF5A" stroke-width="15"/>
<path d="M4557 1067.5L4465.32 1115.45C4428.26 1134.83 4383.5 1131.94 4349.25 1107.95V1107.95C4313.96 1083.23 4267.61 1080.97 4230.08 1102.13L4215.79 1110.19C4175.07 1133.15 4125.5 1133.93 4084.09 1112.26L4072.21 1106.05C4025.92 1081.84 3970.82 1081.34 3924.1 1104.7L3910.13 1111.68C3866.11 1133.7 3813.92 1131.82 3771.58 1106.71V1106.71C3730.26 1082.19 3679.46 1079.78 3636.01 1100.29L3615.02 1110.19C3565.48 1133.56 3508.22 1134.22 3458.16 1111.98L3436.12 1102.2C3386.22 1080.03 3329.44 1079.24 3278.93 1099.98L3243.74 1114.44C3193.14 1135.23 3136.23 1134.39 3086.26 1112.1L2956 1054" stroke="#F9BF5A" stroke-width="15"/>
</svg>
