<svg width="18" height="18" viewBox="0 0 18 18" fill="none" xmlns="http://www.w3.org/2000/svg">
<g clip-path="url(#clip0_344_325)">
<path d="M11.5631 10.6089L14.0093 7.0814C14.2514 6.73393 13.7922 6.35625 13.4416 6.60552L10.8033 8.41837C10.7166 8.47721 10.6112 8.50902 10.5028 8.50902C10.3944 8.50902 10.2889 8.47721 10.2022 8.41837L8.24861 7.08895C7.66419 6.69616 6.82931 6.83968 6.43692 7.39109L3.99072 10.9186C3.7486 11.2661 4.20779 11.6437 4.55844 11.3945L7.19666 9.58162C7.28337 9.52278 7.38883 9.49098 7.49721 9.49098C7.6056 9.49098 7.71106 9.52278 7.79777 9.58162L9.75139 10.8884C10.3358 11.3038 11.1707 11.1603 11.5631 10.6089Z" fill="#EBE1D0"/>
<path fill-rule="evenodd" clip-rule="evenodd" d="M9 0C4.02944 0 0 3.9287 0 8.775C0 11.2636 1.06333 13.5109 2.76923 15.1071V17.325C2.76923 17.542 2.87621 17.7457 3.05674 17.8726C3.23727 17.9995 3.46935 18.034 3.68047 17.9654L6.2463 17.1315C7.115 17.4034 8.04057 17.55 9 17.55C13.9706 17.55 18 13.6213 18 8.775C18 3.9287 13.9706 0 9 0ZM1.38462 8.775C1.38462 4.67428 4.79414 1.35 9 1.35C13.2059 1.35 16.6154 4.67428 16.6154 8.775C16.6154 12.8757 13.2059 16.2 9 16.2C8.11428 16.2 7.26529 16.0528 6.47642 15.7828C6.33153 15.7332 6.17384 15.732 6.02816 15.7793L4.15385 16.3885V14.8125C4.15385 14.6205 4.06998 14.4376 3.92325 14.3095C2.36416 12.949 1.38462 10.974 1.38462 8.775Z" fill="#EBE1D0"/>
</g>
<defs>
<clipPath id="clip0_344_325">
<rect width="18" height="18" fill="white"/>
</clipPath>
</defs>
</svg>
